<svg width="21" height="30" viewBox="0 0 21 30" fill="none" xmlns="http://www.w3.org/2000/svg">
<path d="M0.57254 19.7487C-0.166892 21.324 -0.150819 23.044 0.395718 24.555C0.845808 25.7767 1.39235 26.1786 1.79421 26.3554C2.06748 26.484 2.35682 26.5483 2.64616 26.5483C3.1927 26.5483 3.72316 26.3393 4.09288 25.9375C4.75194 25.2623 4.94484 24.0728 4.2054 22.9797C2.98373 21.1472 2.3086 19.2665 3.27308 17.1929C3.33738 17.0482 3.40167 16.9196 3.48205 16.791C2.2443 17.3697 1.19945 18.3985 0.57254 19.7487Z" fill="#19A24A"/>
<path d="M2.50151 24.4426C2.99982 26.2912 4.22149 27.7379 5.76465 28.622C7.01847 29.3454 7.7579 29.2811 8.20799 29.1525C8.52948 29.0721 8.81882 28.9113 9.05994 28.7185C9.5261 28.3327 9.81544 27.7701 9.84759 27.1753C9.91189 26.1304 9.23676 25.0052 7.85435 24.5873C5.52353 23.9122 3.64281 22.7869 2.98375 20.3597C2.93553 20.1989 2.90338 20.0382 2.87123 19.8774C2.24432 21.2599 2.08357 22.8673 2.50151 24.4426Z" fill="#7DB941"/>
<path d="M7.46858 27.0306C9.18857 28.2362 11.2461 28.5898 13.159 28.2362C14.7182 27.9629 15.2969 27.3842 15.6023 26.9502C15.8113 26.6448 15.9399 26.3233 16.0042 25.9857C16.1167 25.3427 15.9721 24.6676 15.5863 24.1211C14.9111 23.2048 13.5287 22.7226 12.082 23.3495C9.63866 24.4265 7.25962 24.8284 4.9931 23.237C4.84843 23.1245 4.70375 23.028 4.55908 22.8994C4.9931 24.539 5.98972 26.0018 7.46858 27.0306Z" fill="#F1BF1A"/>
<path d="M13.4805 25.7127C15.7791 25.5037 17.7563 24.3464 19.1387 22.7068C20.2639 21.3726 20.3443 20.4724 20.28 19.8937C20.2479 19.4918 20.1193 19.1221 19.9264 18.7846C19.5727 18.1577 18.9619 17.6915 18.2546 17.5147C17.0329 17.2093 15.538 17.7879 14.7503 19.3472C13.4483 21.9673 11.7283 23.9927 8.69022 24.266C8.48125 24.2821 8.28835 24.2981 8.09546 24.2981C9.62255 25.343 11.5033 25.8895 13.4805 25.7127Z" fill="#F09221"/>
<path d="M17.6115 20.3596C19.4119 18.5592 20.2478 16.1802 20.2478 13.8333C20.2478 11.9204 19.6851 11.1006 19.2351 10.6505C18.9136 10.329 18.5599 10.104 18.1581 9.95931C17.4186 9.68604 16.5667 9.71819 15.8594 10.0718C14.6216 10.6827 13.7536 12.2258 14.2198 14.0905C14.9753 17.225 14.9592 20.1506 12.5963 22.5136C12.4355 22.6743 12.2748 22.819 12.114 22.9636C14.1073 22.7708 16.0684 21.9027 17.6115 20.3596Z" fill="#E86724"/>
<path d="M17.8046 11.808C18.094 8.51275 16.9527 5.4425 14.9755 3.09561C13.368 1.18274 12.1303 0.845171 11.3105 0.780873C10.7318 0.732649 10.1853 0.813022 9.67087 0.989842C8.69032 1.34348 7.88659 2.06684 7.46865 3.03131C6.74529 4.67092 7.17931 6.93744 9.18863 8.4163C12.5643 10.8918 14.9916 13.8334 14.6058 18.1736C14.5736 18.4629 14.5415 18.7362 14.4932 19.0255C16.3258 17.1287 17.5474 14.6372 17.8046 11.808Z" fill="#DE3282"/>
</svg>
