<svg width="250" height="84" viewBox="0 0 250 84" fill="none" xmlns="http://www.w3.org/2000/svg">
<g style="mix-blend-mode:multiply">
<path d="M62.9595 56.5C72.203 56.5 79.6963 49.0847 79.6963 39.9375C79.6963 30.7903 72.203 23.375 62.9595 23.375C53.716 23.375 46.2227 30.7903 46.2227 39.9375C46.2227 49.0847 53.716 56.5 62.9595 56.5Z" fill="#F8F8F8"/>
</g>
<g style="mix-blend-mode:multiply">
<path d="M24.9743 29.8C30.7786 29.8 35.4838 25.1438 35.4838 19.4C35.4838 13.6562 30.7786 9 24.9743 9C19.1701 9 14.4648 13.6562 14.4648 19.4C14.4648 25.1438 19.1701 29.8 24.9743 29.8Z" fill="#F8F8F8"/>
</g>
<g style="mix-blend-mode:multiply">
<path d="M158.387 56.5C169.087 56.5 177.762 47.8255 177.762 37.125C177.762 26.4245 169.087 17.75 158.387 17.75C147.686 17.75 139.012 26.4245 139.012 37.125C139.012 47.8255 147.686 56.5 158.387 56.5Z" fill="#F8F8F8"/>
</g>
<g style="mix-blend-mode:multiply">
<path d="M193.812 73.9366C198.627 73.9366 202.53 70.0333 202.53 65.2183C202.53 60.4033 198.627 56.5 193.812 56.5C188.997 56.5 185.094 60.4033 185.094 65.2183C185.094 70.0333 188.997 73.9366 193.812 73.9366Z" fill="#F8F8F8"/>
</g>
<g clip-path="url(#clip0_2841_5060)">
<path d="M113.941 31.9242C114.284 22.2639 122.111 14.4323 131.708 13.836C128.998 12.8918 126.079 12.375 123.046 12.375C113.558 12.375 105.249 17.394 100.625 24.9175C101.749 24.4752 102.972 24.2317 104.25 24.2317C108.969 24.2317 112.917 27.5165 113.931 31.9242" fill="#EFB72E"/>
<path d="M135.143 39.8463C137.619 36.6212 138.992 32.9638 138.992 28.5809C138.992 22.6277 135.968 17.3453 131.707 13.832C141.975 17.4099 149.344 27.1746 149.344 38.6537C149.344 40.065 149.235 41.4514 149.016 42.803C147.251 40.0451 144.163 38.2164 140.643 38.2164C138.649 38.2164 136.794 38.8028 135.237 39.8165" fill="#73B043"/>
<path d="M135.146 39.8463C137.622 36.6212 138.995 32.9638 138.995 28.5809C138.995 22.6277 135.971 17.3453 131.71 13.832C122.113 14.4333 114.287 22.2649 113.944 31.9203H113.934C115.729 31.324 117.653 31.001 119.652 31.001C126.27 31.001 132.058 34.5341 135.24 39.8165" fill="#D73075"/>
<path d="M122.927 75.2027L100.75 66.8046C100.387 66.6754 100.238 66.4021 100.392 66.0493C100.392 66.0493 102.834 62.1335 103.535 60.3346L105.643 54.9578C105.773 54.6646 106.106 54.5255 106.404 54.6348L127.05 61.4328C127.537 61.6167 127.96 62.6354 127.84 63.8926L124.141 74.6114C123.972 75.1133 123.425 75.3767 122.927 75.2027Z" fill="#383F48"/>
<path d="M122.43 74.2077L100.467 66.4954C100.104 66.3662 99.9248 65.9587 100.079 65.6059C100.079 65.6059 102.336 61.1335 103.038 59.3346L105.146 53.9578C105.275 53.6646 105.608 53.5255 105.907 53.6348L126.776 61.531C127.263 61.7149 127.512 62.2516 127.348 62.7386L123.643 73.6114C123.474 74.1133 122.927 74.3767 122.43 74.2027V74.2077Z" fill="white"/>
<path d="M149.02 43.0539C148.935 43.0539 148.856 43.0142 148.811 42.9396C147.016 40.1419 143.968 38.4673 140.646 38.4673C138.767 38.4673 136.942 39.0039 135.375 40.0276C135.321 40.0624 135.251 40.0773 135.181 40.0624C135.117 40.0475 135.057 40.0077 135.022 39.9481C131.741 34.5018 125.992 31.2518 119.648 31.2518C117.718 31.2518 115.819 31.555 114.009 32.1612C113.944 32.1811 113.87 32.1761 113.81 32.1413C113.75 32.1065 113.706 32.0469 113.691 31.9823C112.676 27.5646 108.793 24.4836 104.253 24.4836C103.035 24.4836 101.846 24.7073 100.717 25.1495C100.618 25.1893 100.504 25.1595 100.434 25.08C100.364 24.9955 100.355 24.8812 100.414 24.7917C105.287 16.8558 113.75 12.125 123.049 12.125C137.688 12.125 149.597 24.0265 149.597 38.6561C149.597 40.0773 149.487 41.4886 149.263 42.8452C149.248 42.9446 149.169 43.0291 149.069 43.0489C149.055 43.0489 149.035 43.0539 149.02 43.0539ZM140.646 37.9703C143.923 37.9703 146.951 39.5207 148.866 42.1396C149.02 41.0016 149.099 39.8338 149.099 38.6561C149.099 24.2998 137.409 12.6219 123.049 12.6219C114.163 12.6219 106.053 17.0297 101.22 24.4439C102.199 24.1358 103.214 23.9817 104.253 23.9817C108.937 23.9817 112.955 27.1025 114.113 31.6047C115.898 31.0431 117.758 30.7549 119.653 30.7549C126.092 30.7549 131.929 34.0098 135.321 39.476C136.917 38.4921 138.752 37.9703 140.646 37.9703Z" fill="#383F48"/>
<path d="M114.193 31.9337L113.695 31.9138C114.038 22.2435 121.945 14.1933 131.691 13.582L131.72 14.079C122.223 14.6703 114.521 22.5119 114.188 31.9287L114.193 31.9337Z" fill="#383F48"/>
<path d="M135.345 39.9967L134.952 39.6936C137.508 36.3642 138.746 32.7266 138.746 28.5822C138.746 23.1011 136.125 17.7939 131.551 14.0272L131.869 13.6445C136.553 17.5106 139.243 22.957 139.243 28.5872C139.243 32.8459 137.97 36.5828 135.345 40.0017V39.9967Z" fill="#383F48"/>
<path d="M115.703 57.3863C114.216 53.6344 108.423 41.6584 104.196 32.9125C102.54 29.4886 101.108 26.5319 100.402 25.0212L100.855 24.8125C101.561 26.3182 102.988 29.2749 104.644 32.6938C108.875 41.4447 114.673 53.4307 116.165 57.2024L115.703 57.3863Z" fill="#383F48"/>
<path d="M116.042 57.5997C115.723 54.3945 115.042 46.8809 114.495 40.8481C114.122 36.7435 113.804 33.2252 113.68 31.9481L114.177 31.8984C114.301 33.1706 114.619 36.6938 114.992 40.7985C115.539 46.8312 116.221 54.3448 116.539 57.55L116.047 57.5997H116.042Z" fill="#383F48"/>
<path d="M116.222 57.7267L115.898 57.3491C119.26 54.437 132.536 42.307 135.027 39.5938L135.395 39.9317C132.894 42.6548 119.593 54.8097 116.227 57.7267H116.222Z" fill="#383F48"/>
<path d="M116.634 57.7721L116.445 57.31C120.741 55.5608 124.416 53.8215 128.673 51.8139C129.717 51.322 130.796 50.8101 131.929 50.2784C134.142 49.2398 136.504 48.2261 138.791 47.2422C142.277 45.7414 145.877 44.191 148.9 42.5859L149.134 43.0232C146.091 44.6383 142.481 46.1936 138.985 47.6993C136.703 48.6833 134.341 49.697 132.138 50.7306C131.01 51.2623 129.931 51.7692 128.886 52.2612C124.625 54.2737 120.945 56.013 116.634 57.7671V57.7721Z" fill="#383F48"/>
<path d="M122.75 74.5097C122.616 74.5097 122.481 74.4848 122.352 74.4401L100.384 66.7327C100.145 66.6483 99.9514 66.4694 99.8519 66.2358C99.7525 66.0072 99.7525 65.7389 99.8519 65.5103C99.8818 65.4507 102.114 61.018 102.811 59.249L104.919 53.8722C105.103 53.4498 105.575 53.251 105.998 53.41L126.867 61.3013C127.484 61.5348 127.797 62.2007 127.583 62.8219L123.879 73.6947C123.774 73.9979 123.556 74.2463 123.267 74.3855C123.103 74.465 122.924 74.5047 122.745 74.5047L122.75 74.5097ZM105.695 53.8523C105.56 53.8523 105.431 53.9318 105.376 54.061L103.273 59.4328C102.572 61.2218 100.394 65.5401 100.304 65.724C100.265 65.8184 100.265 65.9327 100.309 66.042C100.354 66.1464 100.444 66.2259 100.553 66.2656L122.516 73.973C122.695 74.0326 122.884 74.0227 123.058 73.9432C123.227 73.8587 123.357 73.7146 123.416 73.5407L127.121 62.6678C127.245 62.3001 127.061 61.9075 126.698 61.7684L105.829 53.8772C105.789 53.8623 105.744 53.8523 105.704 53.8523H105.695Z" fill="#383F48"/>
<path d="M113.476 65.2783C112.561 65.2783 112.093 64.523 112.074 64.4932L105.336 53.7595L105.759 53.4961L112.496 64.2347C112.496 64.2347 112.844 64.7814 113.466 64.7863L127.095 61.5563L127.21 62.0383L113.501 65.2783H113.481H113.476Z" fill="#383F48"/>
<path d="M110.088 60.9193L100.059 65.875L100.279 66.3205L110.308 61.3648L110.088 60.9193Z" fill="#383F48"/>
<path d="M118.962 63.7582L118.5 63.9414L122.628 74.3389L123.09 74.1557L118.962 63.7582Z" fill="#383F48"/>
<path d="M127.371 61.9217C127.291 61.8174 127.212 61.713 127.152 61.5938C127.102 61.6136 127.058 61.6385 127.013 61.6782C126.884 61.7975 126.744 61.9217 126.595 62.0509C126.496 61.9963 126.376 61.9714 126.237 62.0112C122.607 63.0398 118.953 64.0685 115.198 64.5008C114.82 64.7989 114.318 64.9729 113.702 64.9878C112.613 65.0226 111.892 63.7604 111.504 63.4274C111.419 63.6312 112.732 65.8177 114.457 65.9518C115.183 66.0115 115.765 66.1407 116.441 65.8972C116.8 65.768 117.153 65.5891 117.525 65.5245C117.923 65.4549 118.276 65.604 118.664 65.6537C119.251 65.7332 119.793 65.5592 120.315 65.2959C120.852 65.0226 121.334 64.6201 121.901 64.4113C122.582 64.1629 123.219 64.5505 123.915 64.4859C125.248 64.3567 126.545 63.4274 127.535 62.5429C127.455 62.3441 127.406 62.1304 127.376 61.9168L127.371 61.9217Z" fill="#383F48"/>
</g>
<g clip-path="url(#clip1_2841_5060)">
<path d="M70.1015 20.3033C67.5168 15.4161 69.1632 9.28572 73.7504 6.23354C72.1378 6.54392 70.5436 7.12613 69.04 7.99738C64.337 10.7225 61.6494 15.5972 61.5024 20.655C61.9334 20.1129 62.4703 19.6409 63.1038 19.2738C65.443 17.9184 68.3368 18.4126 70.0965 20.3062" fill="#7DB941"/>
<path d="M82.8715 18.1391C83.1794 15.8291 82.8167 13.6219 81.5669 11.4492C79.8693 8.49814 76.8643 6.74801 73.75 6.23047C79.8603 5.05467 86.2978 7.77841 89.5712 13.4687C89.9736 14.1683 90.3147 14.887 90.5917 15.6199C88.9302 14.7598 86.878 14.7402 85.1329 15.7514C84.1445 16.3242 83.3923 17.1476 82.9099 18.0972" fill="#E86724"/>
<path d="M82.871 18.1385C83.1789 15.8285 82.8162 13.6212 81.5664 11.4486C79.8687 8.49751 76.8638 6.74738 73.7495 6.22983C69.1637 9.28448 67.5172 15.4148 70.1005 20.2996L70.0956 20.3025C70.8154 19.4913 71.6772 18.7784 72.668 18.2042C75.9488 16.3032 79.8255 16.3921 82.9093 18.0965" fill="#F1BF1A"/>
<path d="M86.8969 39.1731L73.5086 41.3802C73.2919 41.4204 73.14 41.3278 73.1158 41.1086C73.1158 41.1086 73.2094 38.4662 73.044 37.3731L72.5558 34.1022C72.5363 33.9197 72.6618 33.755 72.8409 33.7235L85.0136 31.1631C85.3076 31.1143 85.8076 31.4979 86.107 32.1554L87.3297 38.5315C87.389 38.8288 87.193 39.1165 86.8969 39.1731Z" fill="#383F48"/>
<path d="M86.3672 38.8235L73.2805 41.3092C73.0637 41.3494 72.8588 41.1988 72.8346 40.9796C72.8346 40.9796 72.6783 38.1142 72.5129 37.0211L72.0248 33.7501C72.0052 33.5677 72.1307 33.403 72.3098 33.3715L84.9066 31.2912C85.2006 31.2424 85.4769 31.437 85.5344 31.7256L86.7986 38.1794C86.8579 38.4768 86.6619 38.7645 86.3658 38.8211L86.3672 38.8235Z" fill="white"/>
<path d="M90.664 15.7458C90.622 15.7701 90.5713 15.7732 90.5278 15.7492C88.8402 14.8779 86.8517 14.9233 85.2051 15.8774C84.2734 16.4173 83.5218 17.2075 83.0373 18.1649C83.0201 18.1978 82.9899 18.2252 82.9511 18.2378C82.9148 18.249 82.8739 18.2464 82.8396 18.2268C79.6597 16.4697 75.8835 16.5098 72.7383 18.3323C71.782 18.8864 70.9268 19.5823 70.2025 20.4027C70.1761 20.4311 70.1377 20.4501 70.0982 20.45C70.0587 20.4499 70.0195 20.4332 69.9937 20.4054C68.2311 18.5069 65.4274 18.0951 63.177 19.3991C62.5731 19.7491 62.0478 20.2013 61.6143 20.7447C61.5764 20.793 61.5112 20.8111 61.454 20.7917C61.3954 20.7698 61.3579 20.716 61.362 20.6545C61.5145 15.3208 64.3607 10.5448 68.9701 7.87393C76.2267 3.66907 85.524 6.14803 89.6958 13.4001C90.1011 14.1046 90.4493 14.8356 90.7252 15.5724C90.7462 15.6259 90.7308 15.6907 90.6872 15.7291C90.6798 15.7334 90.6713 15.7415 90.664 15.7458ZM85.0634 15.6311C86.6878 14.6898 88.631 14.5886 90.3268 15.3368C90.0787 14.7285 89.7851 14.1267 89.4493 13.5429C85.3554 6.42634 76.2304 3.99539 69.1118 8.12026C64.707 10.6726 61.9437 15.1871 61.6621 20.2507C62.0598 19.8166 62.5187 19.4489 63.0339 19.1504C65.3558 17.8049 68.2373 18.1978 70.0955 20.0968C70.8203 19.3057 71.66 18.6287 72.5991 18.0845C75.7911 16.2349 79.6131 16.1716 82.8529 17.9071C83.3636 16.9609 84.1243 16.1752 85.0634 15.6311Z" fill="#383F48"/>
<path d="M70.2258 20.2355L69.9736 20.3685C67.3861 15.4763 69.0096 9.21472 73.6665 6.1123L73.823 6.35007C69.2837 9.37122 67.7017 15.4708 70.2219 20.2345L70.2258 20.2355Z" fill="#383F48"/>
<path d="M83.0125 18.1608L82.7314 18.1234C83.0489 15.7388 82.6254 13.58 81.4436 11.5256C79.8805 8.80851 77.0681 6.93037 73.7263 6.37718L73.7749 6.09609C77.1993 6.66713 80.0859 8.59424 81.6915 11.3852C82.9059 13.4963 83.3405 15.7143 83.014 18.1633L83.0125 18.1608Z" fill="#383F48"/>
<path d="M78.2365 32.4203C76.4297 30.9876 70.143 26.7149 65.5538 23.5934C63.7566 22.3718 62.2036 21.3175 61.4228 20.7714L61.5876 20.538C62.367 21.0816 63.9175 22.1373 65.7133 23.3565C70.3063 26.479 76.5983 30.7552 78.4133 32.1963L78.2365 32.4203Z" fill="#383F48"/>
<path d="M78.4647 32.4291C77.3929 30.9317 74.9126 27.4028 72.9212 24.5694C71.5658 22.6418 70.4048 20.9892 69.979 20.3918L70.2113 20.2244C70.6357 20.8193 71.7982 22.4744 73.1535 24.402C75.145 27.2353 77.6252 30.7642 78.697 32.2617L78.4671 32.4277L78.4647 32.4291Z" fill="#383F48"/>
<path d="M78.5889 32.4427L78.3209 32.3484C79.1568 29.9393 82.279 20.1128 82.7402 18.0523L83.019 18.1141C82.5557 20.1824 79.4282 30.0284 78.5913 32.4413L78.5889 32.4427Z" fill="#383F48"/>
<path d="M78.807 32.3448L78.5815 32.17C80.2124 30.0688 81.538 28.1512 83.0755 25.9334C83.4528 25.3896 83.8417 24.8259 84.2521 24.2367C85.0528 23.0862 85.9345 21.9053 86.7878 20.7605C88.0878 19.0154 89.4302 17.2128 90.4712 15.5487L90.7117 15.6984C89.6637 17.373 88.3178 19.181 87.0143 20.9315C86.1635 22.0748 85.2818 23.2557 84.4846 24.4008C84.0767 24.9886 83.6863 25.5498 83.309 26.0936C81.7705 28.3153 80.4424 30.2344 78.8056 32.3423L78.807 32.3448Z" fill="#383F48"/>
<path d="M86.6116 38.8838C86.545 38.9224 86.4714 38.9486 86.3946 38.9636L73.3068 41.4531C73.1644 41.4798 73.0173 41.4468 72.9014 41.3596C72.7869 41.2748 72.7104 41.1418 72.6945 40.9999C72.6923 40.9618 72.535 38.1232 72.3756 37.0463L71.8875 33.7754C71.8582 33.5132 72.0357 33.2789 72.2905 33.2364L84.886 31.1537C85.2582 31.0923 85.6034 31.3324 85.6745 31.7018L86.9387 38.1556C86.9734 38.3359 86.9358 38.5219 86.8325 38.6737C86.7738 38.7602 86.6964 38.8314 86.6077 38.8828L86.6116 38.8838ZM72.2663 33.5427C72.1998 33.5813 72.1583 33.6578 72.1681 33.7376L72.6573 37.0046C72.8198 38.0928 72.9716 40.859 72.9797 40.9759C72.9869 41.0341 73.0195 41.0908 73.0729 41.1321C73.1248 41.171 73.1918 41.1847 73.2574 41.173L86.3427 38.6849C86.4484 38.663 86.5393 38.6038 86.6029 38.5144C86.6626 38.424 86.6856 38.3154 86.6656 38.2121L85.4014 31.7582C85.3581 31.5402 85.155 31.3985 84.9354 31.4338L72.3399 33.5165C72.316 33.5205 72.291 33.5284 72.2712 33.5399L72.2663 33.5427Z" fill="#383F48"/>
<path d="M79.3792 36.9712C78.9257 37.234 78.4786 36.9939 78.4602 36.9848L72.0595 33.5993L72.1939 33.3473L78.5961 36.7353C78.5961 36.7353 78.9245 36.9063 79.234 36.7302L85.0692 31.2141L85.2633 31.4202L79.3916 36.9641L79.3817 36.9698L79.3792 36.9712Z" fill="#383F48"/>
<path d="M76.4568 35.7838L72.8984 41.1211L73.1347 41.2786L76.693 35.9413L76.4568 35.7838Z" fill="#383F48"/>
<path d="M81.6651 34.6436L81.4883 34.8672L86.4994 38.8357L86.6762 38.6121L81.6651 34.6436Z" fill="#383F48"/>
<path d="M85.3125 31.3187C85.2433 31.2898 85.1741 31.2609 85.1105 31.2189C85.0915 31.2431 85.0764 31.2682 85.0656 31.3008C85.0355 31.3971 85.0019 31.4986 84.9648 31.6055C84.8999 31.607 84.8337 31.629 84.776 31.6887C83.2699 33.2412 81.7516 34.8009 80.0139 36.0936C79.9116 36.3499 79.7122 36.5804 79.4108 36.7649C78.8809 37.0949 78.1636 36.6763 77.8764 36.6227C77.8926 36.748 79.1668 37.4548 80.0604 37.0257C80.4373 36.8467 80.7625 36.7436 81.0283 36.4287C81.1689 36.2618 81.2929 36.0717 81.4594 35.9326C81.6367 35.7838 81.8542 35.7563 82.0607 35.6696C82.3742 35.5404 82.5933 35.2985 82.777 35.018C82.9652 34.7283 83.0896 34.3902 83.311 34.1239C83.5779 33.8051 84.0039 33.8144 84.3306 33.5824C84.9543 33.1356 85.3327 32.3022 85.5709 31.5795C85.4748 31.5038 85.3892 31.4121 85.3135 31.3148L85.3125 31.3187Z" fill="#383F48"/>
</g>
<defs>
<clipPath id="clip0_2841_5060">
<rect width="49.8188" height="63.125" fill="white" transform="translate(99.7773 12.125)"/>
</clipPath>
<clipPath id="clip1_2841_5060">
<rect width="28.5422" height="36.0999" fill="white" transform="matrix(0.865238 -0.501362 0.498639 0.866809 57.4336 14.5586)"/>
</clipPath>
</defs>
</svg>
