<svg width="77" height="18" viewBox="0 0 77 18" fill="none" xmlns="http://www.w3.org/2000/svg">
<path d="M7.11177 3.95264C8.63885 3.95264 11.6609 4.57955 11.6609 6.73354V8.03558H9.45866V7.3283C9.45866 6.42812 8.02802 6.02626 7.11177 6.02626C4.63628 6.02626 2.7877 7.87483 2.7877 10.5593C2.7877 13.4366 4.89347 15.0602 7.24036 15.0602C9.6194 15.0602 11.1626 13.308 11.1626 13.308L12.2074 15.028C12.2074 15.028 10.4071 17.1981 7.04747 17.1981C3.06097 17.1981 0.296143 14.369 0.296143 10.5593C0.296143 6.86213 3.02882 3.95264 7.11177 3.95264Z" fill="#3F4752"/>
<path d="M21.177 9.04832H21.7235V8.91972C21.7235 6.68536 20.9037 5.8977 18.9266 5.8977C18.3318 5.8977 16.8529 6.04237 16.8529 6.87825V7.60161H14.5704V6.34779C14.5704 4.27417 17.721 3.96875 18.9587 3.96875C23.0577 3.96875 24.1669 6.12274 24.1669 8.91972V14.3047C24.1669 14.6744 24.1669 14.8512 24.1669 14.8512V16.9249C24.1669 16.9249 22.4469 16.9249 21.9325 16.9249C21.9325 16.4909 21.9486 15.5907 21.9486 15.5907H21.9004C21.9004 15.5907 20.9037 17.2142 17.8656 17.2142C15.6956 17.2142 13.5577 15.88 13.5577 13.3563C13.5416 9.28944 19.0391 9.04832 21.177 9.04832ZM18.364 15.2692C20.4215 15.2692 21.7396 13.1152 21.7396 11.2345V10.8165H21.1127C19.2802 10.8165 15.9849 10.913 15.9849 13.2438C15.9849 14.2726 16.7726 15.2692 18.364 15.2692Z" fill="#3F4752"/>
<path d="M40.6755 9.04828H41.2221V8.91968C41.2221 6.68532 40.4023 5.88159 38.4251 5.88159C37.8303 5.88159 36.3515 6.02626 36.3515 6.86214V7.58549H34.0689V6.33168C34.0689 4.25805 37.2195 3.95264 38.4573 3.95264C42.5563 3.95264 43.6654 6.10663 43.6654 8.90361V14.2886C43.6654 14.6583 43.6654 14.8351 43.6654 14.8351V16.9088C43.6654 16.9088 41.9454 16.9088 41.4311 16.9088C41.4311 16.4908 41.4471 15.5906 41.4471 15.5906H41.3989C41.3989 15.5906 40.4023 17.2142 37.3642 17.2142C35.178 17.2142 33.0562 15.88 33.0562 13.3563C33.0401 9.2894 38.5537 9.04828 40.6755 9.04828ZM37.8786 15.2691C39.9361 15.2691 41.2542 13.1152 41.2542 11.2344V10.8004H40.6273C38.7948 10.8004 35.4995 10.8969 35.4995 13.2277C35.4995 14.2725 36.2711 15.2691 37.8786 15.2691Z" fill="#3F4752"/>
<path d="M26.0476 0.77002H28.4749V4.24213H31.4969V6.18715H28.4749V11.9901C28.4749 14.5138 30.227 14.8514 31.1593 14.8514C31.513 14.8514 31.738 14.8031 31.738 14.8031V16.9571C31.738 16.9571 31.4165 17.0054 30.8861 17.0054C29.2786 17.0054 26.0476 16.507 26.0476 12.2794V6.18715V0.77002Z" fill="#3F4752"/>
<path d="M45.5461 4.25844C45.6265 4.25844 47.9091 4.25844 47.9091 4.25844C47.9091 4.62816 47.9091 6.29991 47.9091 6.29991C48.5039 4.45133 49.9667 4.11377 51.9117 4.11377C52.2332 4.11377 52.5708 4.16199 52.5708 4.16199V6.55711C52.5708 6.55711 52.2493 6.47673 51.8474 6.47673C50.3042 6.47673 48.8736 7.58588 48.2949 9.45053C48.0699 10.1739 47.9895 10.9455 47.9895 11.7331V16.9091C47.9895 16.9091 45.5783 16.9091 45.5461 16.9091C45.5461 16.8288 45.5461 4.35489 45.5461 4.25844Z" fill="#3F4752"/>
<path d="M54.6122 13.3724C54.6122 13.3724 56.1072 15.2531 58.438 15.2531C59.6114 15.2531 60.6402 14.7226 60.6402 13.6296C60.6402 11.347 53.7281 11.6042 53.7281 7.52123C53.7281 5.09397 55.85 3.96875 58.438 3.96875C59.9651 3.96875 62.6013 4.49921 62.6013 6.42816V7.63376H60.4151V7.00685C60.4151 6.25134 59.2899 5.92985 58.5183 5.92985C57.0877 5.92985 56.1714 6.42816 56.1714 7.42479C56.1714 9.83597 63.0835 9.30551 63.0835 13.5331C63.0835 15.7836 61.0903 17.2303 58.4219 17.2303C55.0462 17.2303 53.3584 14.9959 53.3584 14.9959L54.6122 13.3724Z" fill="#3F4752"/>
<path d="M70.7669 3.95264C74.3194 3.95264 76.2323 6.60494 76.2323 9.88416C76.2323 10.2056 76.1519 10.8808 76.1519 10.8808H66.909C67.0537 13.5813 69.0148 15.1084 71.2652 15.1084C73.4353 15.1084 74.9624 13.6295 74.9624 13.6295L76.0233 15.3495C76.0233 15.3495 74.1426 17.1981 71.1366 17.1981C67.1341 17.1981 64.4014 14.3207 64.4014 10.5593C64.4174 6.55672 67.1662 3.95264 70.7669 3.95264ZM73.7246 9.11258C73.6443 7.00681 72.3261 5.88159 70.7508 5.88159C68.9023 5.88159 67.3912 7.00681 67.0215 9.11258H73.7246Z" fill="#3F4752"/>
</svg>
