<svg width="80" height="19" viewBox="0 0 80 19" fill="none" xmlns="http://www.w3.org/2000/svg">
<path d="M0.025 11.675C0.025 7.65 2.75 5.05 6.35 5.05C9.925 5.05 11.825 7.7 11.825 10.975C11.825 11.3 11.75 12.025 11.75 12.025H2.525C2.65 14.8 4.625 16.2 6.875 16.2C9.05 16.2 10.625 14.725 10.625 14.725L11.625 16.5C11.625 16.5 9.75 18.3 6.725 18.3C2.75 18.3 0.025 15.425 0.025 11.675ZM2.6 10.2H9.35C9.275 8.025 7.925 6.975 6.3 6.975C4.45 6.975 2.95 8.125 2.6 10.2ZM12.9922 16.45L14.1672 14.725C14.1672 14.725 15.5922 16.2 17.7922 16.2C18.8422 16.2 19.8922 15.65 19.8922 14.625C19.8922 12.3 13.3922 12.775 13.3922 8.65C13.3922 6.35 15.4422 5.05 17.9672 5.05C20.7422 5.05 22.0422 6.45 22.0422 6.45L21.0672 8.275C21.0672 8.275 19.9422 7.15 17.9422 7.15C16.8922 7.15 15.8672 7.6 15.8672 8.7C15.8672 10.975 22.3672 10.475 22.3672 14.625C22.3672 16.725 20.5672 18.3 17.7922 18.3C14.6922 18.3 12.9922 16.45 12.9922 16.45ZM24.9982 13.375V7.475H23.3482V5.525H25.0732V1.875H27.4232V5.525H30.4732V7.475H27.4232V13.1C27.4232 15.625 29.1982 15.95 30.1232 15.95C30.4732 15.95 30.6982 15.9 30.6982 15.9V18.05C30.6982 18.05 30.3482 18.1 29.8482 18.1C28.2232 18.1 24.9982 17.6 24.9982 13.375ZM32.5082 13.45V5.35H34.9332V12.9C34.9332 14.65 35.2832 16.05 37.3082 16.05C39.8832 16.05 41.4082 13.775 41.4082 11.275V5.35H43.8332V18H41.4832V16.325C41.4832 15.8 41.5332 15.4 41.5332 15.4H41.4832C40.9582 16.65 39.3082 18.3 36.8332 18.3C33.9832 18.3 32.5082 16.8 32.5082 13.45ZM37.0832 3.525L38.9082 0.349999H41.5082L39.1082 3.525H37.0832ZM46.0496 11.675C46.0496 7.65 48.4246 5.05 51.7746 5.05C54.6996 5.05 55.6746 7.05 55.6746 7.05H55.7246C55.7246 7.05 55.6746 6.675 55.6746 6.2V0.349999H58.0996V18H55.7996V16.8C55.7996 16.3 55.8246 15.95 55.8246 15.95H55.7746C55.7746 15.95 54.7496 18.3 51.6246 18.3C48.1996 18.3 46.0496 15.6 46.0496 11.675ZM48.5246 11.675C48.5246 14.425 49.9996 16.2 52.0996 16.2C53.9746 16.2 55.7496 14.875 55.7496 11.65C55.7496 9.4 54.5746 7.15 52.1746 7.15C50.1746 7.15 48.5246 8.8 48.5246 11.675ZM61.1143 2.825V0.349999H63.5643V2.825H61.1143ZM61.1393 18V5.35H63.5643V18H61.1393ZM65.6898 11.65C65.6898 7.825 68.7398 5.05 72.5148 5.05C76.2898 5.05 79.3398 7.825 79.3398 11.65C79.3398 15.5 76.2898 18.3 72.5148 18.3C68.7398 18.3 65.6898 15.5 65.6898 11.65ZM68.1648 11.65C68.1648 14.3 70.1398 16.2 72.5148 16.2C74.9148 16.2 76.8648 14.3 76.8648 11.65C76.8648 9.025 74.9148 7.15 72.5148 7.15C70.1398 7.15 68.1648 9.025 68.1648 11.65Z" fill="#3F4752"/>
</svg>
