<svg width="105" height="30" viewBox="0 0 105 30" fill="none" xmlns="http://www.w3.org/2000/svg">
<g clip-path="url(#clip0_2704_80150)">
<path d="M0.57254 19.7487C-0.166892 21.324 -0.150819 23.044 0.395718 24.555C0.845808 25.7767 1.39235 26.1786 1.79421 26.3554C2.06748 26.484 2.35682 26.5483 2.64616 26.5483C3.1927 26.5483 3.72316 26.3393 4.09288 25.9375C4.75194 25.2623 4.94484 24.0728 4.2054 22.9797C2.98373 21.1472 2.3086 19.2665 3.27308 17.1929C3.33738 17.0482 3.40167 16.9196 3.48205 16.791C2.2443 17.3697 1.19945 18.3985 0.57254 19.7487Z" fill="#19A24A"/>
<path d="M2.5015 24.4426C2.99981 26.2912 4.22148 27.7379 5.76464 28.622C7.01845 29.3454 7.75789 29.2811 8.20797 29.1525C8.52947 29.0721 8.81881 28.9113 9.05992 28.7185C9.52609 28.3327 9.81542 27.7701 9.84757 27.1753C9.91187 26.1304 9.23674 25.0052 7.85433 24.5873C5.52352 23.9122 3.6428 22.7869 2.98374 20.3597C2.93552 20.1989 2.90336 20.0382 2.87122 19.8774C2.24431 21.2599 2.08356 22.8673 2.5015 24.4426Z" fill="#7DB941"/>
<path d="M7.46855 27.0306C9.18854 28.2362 11.2461 28.5898 13.159 28.2362C14.7182 27.9629 15.2969 27.3842 15.6023 26.9502C15.8113 26.6448 15.9399 26.3233 16.0042 25.9857C16.1167 25.3427 15.972 24.6676 15.5862 24.1211C14.9111 23.2048 13.5287 22.7226 12.082 23.3495C9.63863 24.4265 7.25959 24.8284 4.99307 23.237C4.8484 23.1245 4.70372 23.028 4.55905 22.8994C4.99307 24.539 5.98969 26.0018 7.46855 27.0306Z" fill="#F1BF1A"/>
<path d="M13.4805 25.7127C15.7791 25.5037 17.7563 24.3464 19.1387 22.7068C20.2639 21.3726 20.3443 20.4724 20.28 19.8937C20.2479 19.4918 20.1193 19.1221 19.9264 18.7846C19.5727 18.1577 18.9619 17.6915 18.2546 17.5147C17.0329 17.2093 15.538 17.7879 14.7503 19.3472C13.4483 21.9673 11.7283 23.9927 8.69022 24.266C8.48125 24.2821 8.28835 24.2981 8.09546 24.2981C9.62255 25.343 11.5033 25.8895 13.4805 25.7127Z" fill="#F09221"/>
<path d="M17.6116 20.3596C19.412 18.5592 20.2478 16.1802 20.2478 13.8333C20.2478 11.9204 19.6852 11.1006 19.2352 10.6505C18.9137 10.329 18.56 10.104 18.1582 9.95931C17.4187 9.68604 16.5668 9.71819 15.8595 10.0718C14.6217 10.6827 13.7537 12.2258 14.2199 14.0905C14.9754 17.225 14.9593 20.1506 12.5963 22.5136C12.4356 22.6743 12.2749 22.819 12.1141 22.9636C14.1074 22.7708 16.0685 21.9027 17.6116 20.3596Z" fill="#E86724"/>
<path d="M17.8045 11.808C18.0938 8.51275 16.9526 5.4425 14.9754 3.09561C13.3679 1.18274 12.1302 0.845171 11.3104 0.780873C10.7317 0.732649 10.1851 0.813022 9.67076 0.989842C8.69021 1.34348 7.88648 2.06684 7.46854 3.03131C6.74518 4.67092 7.1792 6.93744 9.18852 8.4163C12.5642 10.8918 14.9915 13.8334 14.6057 18.1736C14.5735 18.4629 14.5414 18.7362 14.4931 19.0255C16.3256 17.1287 17.5473 14.6372 17.8045 11.808Z" fill="#DE3282"/>
<path d="M35.1118 9.95264C36.6389 9.95264 39.6609 10.5795 39.6609 12.7335V14.0356H37.4587V13.3283C37.4587 12.4281 36.028 12.0263 35.1118 12.0263C32.6363 12.0263 30.7877 13.8748 30.7877 16.5593C30.7877 19.4366 32.8935 21.0602 35.2404 21.0602C37.6194 21.0602 39.1626 19.308 39.1626 19.308L40.2074 21.028C40.2074 21.028 38.4071 23.1981 35.0475 23.1981C31.061 23.1981 28.2961 20.369 28.2961 16.5593C28.2961 12.8621 31.0288 9.95264 35.1118 9.95264Z" fill="#3F4752"/>
<path d="M49.177 15.0483H49.7236V14.9197C49.7236 12.6854 48.9038 11.8977 46.9266 11.8977C46.3318 11.8977 44.853 12.0424 44.853 12.8783V13.6016H42.5704V12.3478C42.5704 10.2742 45.721 9.96875 46.9587 9.96875C51.0578 9.96875 52.1669 12.1227 52.1669 14.9197V20.3047C52.1669 20.6744 52.1669 20.8512 52.1669 20.8512V22.9249C52.1669 22.9249 50.4469 22.9249 49.9325 22.9249C49.9325 22.4909 49.9486 21.5907 49.9486 21.5907H49.9004C49.9004 21.5907 48.9038 23.2142 45.8657 23.2142C43.6956 23.2142 41.5577 21.88 41.5577 19.3563C41.5416 15.2894 47.0391 15.0483 49.177 15.0483ZM46.364 21.2692C48.4215 21.2692 49.7396 19.1152 49.7396 17.2345V16.8165H49.1127C47.2802 16.8165 43.9849 16.913 43.9849 19.2438C43.9849 20.2726 44.7726 21.2692 46.364 21.2692Z" fill="#3F4752"/>
<path d="M68.6755 15.0483H69.2221V14.9197C69.2221 12.6853 68.4022 11.8816 66.4251 11.8816C65.8303 11.8816 64.3514 12.0263 64.3514 12.8621V13.5855H62.0689V12.3317C62.0689 10.2581 65.2195 9.95264 66.4572 9.95264C70.5562 9.95264 71.6654 12.1066 71.6654 14.9036V20.2886C71.6654 20.6583 71.6654 20.8351 71.6654 20.8351V22.9088C71.6654 22.9088 69.9454 22.9088 69.431 22.9088C69.431 22.4908 69.4471 21.5906 69.4471 21.5906H69.3989C69.3989 21.5906 68.4022 23.2142 65.3641 23.2142C63.178 23.2142 61.0562 21.88 61.0562 19.3563C61.0401 15.2894 66.5537 15.0483 68.6755 15.0483ZM65.8785 21.2691C67.9361 21.2691 69.2542 19.1152 69.2542 17.2344V16.8004H68.6273C66.7948 16.8004 63.4995 16.8969 63.4995 19.2277C63.4995 20.2725 64.2711 21.2691 65.8785 21.2691Z" fill="#3F4752"/>
<path d="M54.0476 6.77002H56.4749V10.2421H59.4969V12.1872H56.4749V17.9901C56.4749 20.5138 58.227 20.8514 59.1594 20.8514C59.513 20.8514 59.738 20.8031 59.738 20.8031V22.9571C59.738 22.9571 59.4165 23.0053 58.8861 23.0053C57.2786 23.0053 54.0476 22.507 54.0476 18.2794V12.1872V6.77002Z" fill="#3F4752"/>
<path d="M73.5461 10.2584C73.6265 10.2584 75.9091 10.2584 75.9091 10.2584C75.9091 10.6282 75.9091 12.2999 75.9091 12.2999C76.5038 10.4513 77.9666 10.1138 79.9117 10.1138C80.2332 10.1138 80.5707 10.162 80.5707 10.162V12.5571C80.5707 12.5571 80.2492 12.4767 79.8474 12.4767C78.3042 12.4767 76.8736 13.5859 76.2949 15.4505C76.0698 16.1739 75.9895 16.9455 75.9895 17.7331V22.9091C75.9895 22.9091 73.5783 22.9091 73.5461 22.9091C73.5461 22.8288 73.5461 10.3549 73.5461 10.2584Z" fill="#3F4752"/>
<path d="M82.6122 19.3724C82.6122 19.3724 84.1071 21.2531 86.4379 21.2531C87.6114 21.2531 88.6401 20.7226 88.6401 19.6296C88.6401 17.347 81.7281 17.6042 81.7281 13.5212C81.7281 11.094 83.8499 9.96875 86.4379 9.96875C87.965 9.96875 90.6012 10.4992 90.6012 12.4282V13.6338H88.4151V13.0068C88.4151 12.2513 87.2899 11.9299 86.5183 11.9299C85.0877 11.9299 84.1714 12.4282 84.1714 13.4248C84.1714 15.836 91.0835 15.3055 91.0835 19.5331C91.0835 21.7836 89.0902 23.2303 86.4218 23.2303C83.0462 23.2303 81.3584 20.9959 81.3584 20.9959L82.6122 19.3724Z" fill="#3F4752"/>
<path d="M98.7671 9.95264C102.32 9.95264 104.232 12.6049 104.232 15.8842C104.232 16.2056 104.152 16.8808 104.152 16.8808H94.9092C95.0539 19.5813 97.015 21.1084 99.2654 21.1084C101.436 21.1084 102.963 19.6295 102.963 19.6295L104.024 21.3495C104.024 21.3495 102.143 23.1981 99.1369 23.1981C95.1343 23.1981 92.4016 20.3207 92.4016 16.5593C92.4177 12.5567 95.1664 9.95264 98.7671 9.95264ZM101.725 15.1126C101.644 13.0068 100.326 11.8816 98.7511 11.8816C96.9025 11.8816 95.3915 13.0068 95.0218 15.1126H101.725Z" fill="#3F4752"/>
</g>
<defs>
<clipPath id="clip0_2704_80150">
<rect width="104.232" height="28.4659" fill="white" transform="translate(0 0.76709)"/>
</clipPath>
</defs>
</svg>
