<svg width="681" height="127" viewBox="0 0 681 127" fill="none" xmlns="http://www.w3.org/2000/svg">
<g clip-path="url(#clip0_3021_3709)">
<rect width="681" height="42" fill="#DBE8F1"/>
<rect x="21" y="16" width="12" height="12" rx="6" fill="#CA4B4E"/>
<rect x="41" y="16" width="12" height="12" rx="6" fill="#F1BF1A"/>
<rect x="61" y="16" width="12" height="12" rx="6" fill="#609A2A"/>
<g clip-path="url(#clip1_3021_3709)">
<g clip-path="url(#clip2_3021_3709)">
<path d="M87 16C87 11.5817 90.5817 8 95 8H331C335.418 8 339 11.5817 339 16V42H87V16Z" fill="#F8F8F8"/>
<rect x="295" y="8" width="44" height="34" fill="#F8F8F8"/>
<path d="M320 22L323 25M323 25L326 22M323 25L320 28M323 25L326 28" stroke="#BEC0C4" stroke-width="1.5" stroke-linecap="round" stroke-linejoin="round"/>
<path d="M108.83 23.4545C108.778 23.0227 108.571 22.6875 108.207 22.4489C107.844 22.2102 107.398 22.0909 106.869 22.0909C106.483 22.0909 106.145 22.1534 105.855 22.2784C105.568 22.4034 105.344 22.5753 105.182 22.794C105.023 23.0128 104.943 23.2614 104.943 23.5398C104.943 23.7727 104.999 23.973 105.109 24.1406C105.223 24.3054 105.368 24.4432 105.544 24.554C105.72 24.6619 105.905 24.7514 106.098 24.8224C106.291 24.8906 106.469 24.946 106.631 24.9886L107.517 25.2273C107.744 25.2869 107.997 25.3693 108.276 25.4744C108.557 25.5795 108.825 25.723 109.081 25.9048C109.339 26.0838 109.553 26.3139 109.72 26.5952C109.888 26.8764 109.972 27.2216 109.972 27.6307C109.972 28.1023 109.848 28.5284 109.601 28.9091C109.357 29.2898 108.999 29.5923 108.527 29.8168C108.058 30.0412 107.489 30.1534 106.818 30.1534C106.193 30.1534 105.652 30.0526 105.195 29.8509C104.74 29.6491 104.382 29.3679 104.121 29.0071C103.862 28.6463 103.716 28.2273 103.682 27.75H104.773C104.801 28.0795 104.912 28.3523 105.105 28.5682C105.301 28.7812 105.548 28.9403 105.847 29.0455C106.148 29.1477 106.472 29.1989 106.818 29.1989C107.222 29.1989 107.584 29.1335 107.905 29.0028C108.226 28.8693 108.48 28.6847 108.668 28.4489C108.855 28.2102 108.949 27.9318 108.949 27.6136C108.949 27.3239 108.868 27.0881 108.706 26.9062C108.544 26.7244 108.331 26.5767 108.067 26.4631C107.803 26.3494 107.517 26.25 107.21 26.1648L106.136 25.858C105.455 25.6619 104.915 25.3821 104.517 25.0185C104.119 24.6548 103.92 24.179 103.92 23.5909C103.92 23.1023 104.053 22.6761 104.317 22.3125C104.584 21.946 104.942 21.6619 105.391 21.4602C105.842 21.2557 106.347 21.1534 106.903 21.1534C107.466 21.1534 107.966 21.2543 108.403 21.456C108.841 21.6548 109.188 21.9276 109.443 22.2741C109.702 22.6207 109.838 23.0142 109.852 23.4545H108.83ZM114.317 30.1364C113.686 30.1364 113.142 29.9972 112.685 29.7188C112.23 29.4375 111.88 29.0455 111.632 28.5426C111.388 28.0369 111.266 27.4489 111.266 26.7784C111.266 26.108 111.388 25.517 111.632 25.0057C111.88 24.4915 112.223 24.0909 112.664 23.804C113.107 23.5142 113.624 23.3693 114.215 23.3693C114.556 23.3693 114.892 23.4261 115.225 23.5398C115.557 23.6534 115.86 23.8381 116.132 24.0938C116.405 24.3466 116.623 24.6818 116.784 25.0994C116.946 25.517 117.027 26.0312 117.027 26.642V27.0682H111.982V26.1989H116.005C116.005 25.8295 115.931 25.5 115.783 25.2102C115.638 24.9205 115.431 24.6918 115.161 24.5241C114.894 24.3565 114.578 24.2727 114.215 24.2727C113.814 24.2727 113.468 24.3722 113.175 24.571C112.885 24.767 112.662 25.0227 112.506 25.3381C112.35 25.6534 112.272 25.9915 112.272 26.3523V26.9318C112.272 27.4261 112.357 27.8452 112.527 28.1889C112.701 28.5298 112.941 28.7898 113.248 28.9688C113.554 29.1449 113.911 29.233 114.317 29.233C114.581 29.233 114.82 29.196 115.033 29.1222C115.249 29.0455 115.435 28.9318 115.591 28.7812C115.748 28.6278 115.868 28.4375 115.953 28.2102L116.925 28.483C116.823 28.8125 116.651 29.1023 116.409 29.3523C116.168 29.5994 115.87 29.7926 115.515 29.9318C115.159 30.0682 114.76 30.1364 114.317 30.1364ZM122.682 27.3239V23.4545H123.688V30H122.682V28.892H122.614C122.461 29.2244 122.222 29.5071 121.898 29.7401C121.574 29.9702 121.165 30.0852 120.671 30.0852C120.262 30.0852 119.898 29.9957 119.58 29.8168C119.262 29.6349 119.012 29.3622 118.83 28.9986C118.648 28.6321 118.557 28.1705 118.557 27.6136V23.4545H119.563V27.5455C119.563 28.0227 119.696 28.4034 119.963 28.6875C120.233 28.9716 120.577 29.1136 120.995 29.1136C121.245 29.1136 121.499 29.0497 121.757 28.9219C122.019 28.794 122.238 28.598 122.414 28.3338C122.593 28.0696 122.682 27.733 122.682 27.3239ZM129.041 30V21.2727H131.99C132.675 21.2727 133.234 21.3963 133.669 21.6435C134.107 21.8878 134.43 22.2188 134.641 22.6364C134.851 23.054 134.956 23.5199 134.956 24.0341C134.956 24.5483 134.851 25.0156 134.641 25.4361C134.433 25.8565 134.112 26.1918 133.678 26.4418C133.243 26.6889 132.686 26.8125 132.007 26.8125H129.893V25.875H131.973C132.442 25.875 132.818 25.794 133.102 25.6321C133.386 25.4702 133.592 25.2514 133.72 24.9759C133.851 24.6974 133.916 24.3835 133.916 24.0341C133.916 23.6847 133.851 23.3722 133.72 23.0966C133.592 22.821 133.385 22.6051 133.098 22.4489C132.811 22.2898 132.43 22.2102 131.956 22.2102H130.098V30H129.041ZM136.522 30V23.4545H137.494V24.4432H137.562C137.681 24.1193 137.897 23.8565 138.21 23.6548C138.522 23.4531 138.874 23.3523 139.266 23.3523C139.34 23.3523 139.433 23.3537 139.543 23.3565C139.654 23.3594 139.738 23.3636 139.795 23.3693V24.392C139.761 24.3835 139.683 24.3707 139.56 24.3537C139.441 24.3338 139.315 24.3239 139.181 24.3239C138.863 24.3239 138.579 24.3906 138.329 24.5241C138.082 24.6548 137.886 24.8366 137.741 25.0696C137.599 25.2997 137.528 25.5625 137.528 25.858V30H136.522ZM143.447 30.1364C142.856 30.1364 142.337 29.9957 141.891 29.7145C141.448 29.4332 141.102 29.0398 140.852 28.5341C140.604 28.0284 140.481 27.4375 140.481 26.7614C140.481 26.0795 140.604 25.4844 140.852 24.9759C141.102 24.4673 141.448 24.0724 141.891 23.7912C142.337 23.5099 142.856 23.3693 143.447 23.3693C144.038 23.3693 144.555 23.5099 144.998 23.7912C145.444 24.0724 145.79 24.4673 146.038 24.9759C146.288 25.4844 146.413 26.0795 146.413 26.7614C146.413 27.4375 146.288 28.0284 146.038 28.5341C145.79 29.0398 145.444 29.4332 144.998 29.7145C144.555 29.9957 144.038 30.1364 143.447 30.1364ZM143.447 29.233C143.896 29.233 144.265 29.1179 144.555 28.8878C144.844 28.6577 145.059 28.3551 145.198 27.9801C145.337 27.6051 145.407 27.1989 145.407 26.7614C145.407 26.3239 145.337 25.9162 145.198 25.5384C145.059 25.1605 144.844 24.8551 144.555 24.6222C144.265 24.3892 143.896 24.2727 143.447 24.2727C142.998 24.2727 142.629 24.3892 142.339 24.6222C142.049 24.8551 141.835 25.1605 141.695 25.5384C141.556 25.9162 141.487 26.3239 141.487 26.7614C141.487 27.1989 141.556 27.6051 141.695 27.9801C141.835 28.3551 142.049 28.6577 142.339 28.8878C142.629 29.1179 142.998 29.233 143.447 29.233ZM147.948 23.4545H148.953V30.4773C148.953 30.8807 148.884 31.2301 148.745 31.5256C148.608 31.821 148.401 32.0497 148.123 32.2116C147.847 32.3736 147.499 32.4545 147.078 32.4545C147.044 32.4545 147.01 32.4545 146.976 32.4545C146.942 32.4545 146.908 32.4545 146.874 32.4545V31.517C146.908 31.517 146.939 31.517 146.968 31.517C146.996 31.517 147.027 31.517 147.061 31.517C147.368 31.517 147.593 31.4261 147.735 31.2443C147.877 31.0653 147.948 30.8097 147.948 30.4773V23.4545ZM148.442 22.3636C148.246 22.3636 148.077 22.2969 147.935 22.1634C147.796 22.0298 147.726 21.8693 147.726 21.6818C147.726 21.4943 147.796 21.3338 147.935 21.2003C148.077 21.0668 148.246 21 148.442 21C148.638 21 148.806 21.0668 148.945 21.2003C149.087 21.3338 149.158 21.4943 149.158 21.6818C149.158 21.8693 149.087 22.0298 148.945 22.1634C148.806 22.2969 148.638 22.3636 148.442 22.3636ZM153.54 30.1364C152.909 30.1364 152.365 29.9972 151.908 29.7188C151.453 29.4375 151.102 29.0455 150.855 28.5426C150.611 28.0369 150.489 27.4489 150.489 26.7784C150.489 26.108 150.611 25.517 150.855 25.0057C151.102 24.4915 151.446 24.0909 151.886 23.804C152.33 23.5142 152.847 23.3693 153.438 23.3693C153.778 23.3693 154.115 23.4261 154.447 23.5398C154.78 23.6534 155.082 23.8381 155.355 24.0938C155.628 24.3466 155.845 24.6818 156.007 25.0994C156.169 25.517 156.25 26.0312 156.25 26.642V27.0682H151.205V26.1989H155.227C155.227 25.8295 155.153 25.5 155.006 25.2102C154.861 24.9205 154.653 24.6918 154.384 24.5241C154.116 24.3565 153.801 24.2727 153.438 24.2727C153.037 24.2727 152.69 24.3722 152.398 24.571C152.108 24.767 151.885 25.0227 151.729 25.3381C151.572 25.6534 151.494 25.9915 151.494 26.3523V26.9318C151.494 27.4261 151.58 27.8452 151.75 28.1889C151.923 28.5298 152.163 28.7898 152.47 28.9688C152.777 29.1449 153.134 29.233 153.54 29.233C153.804 29.233 154.043 29.196 154.256 29.1222C154.472 29.0455 154.658 28.9318 154.814 28.7812C154.97 28.6278 155.091 28.4375 155.176 28.2102L156.148 28.483C156.045 28.8125 155.874 29.1023 155.632 29.3523C155.391 29.5994 155.092 29.7926 154.737 29.9318C154.382 30.0682 153.983 30.1364 153.54 30.1364ZM160.626 23.4545V24.3068H157.234V23.4545H160.626ZM158.223 21.8864H159.229V28.125C159.229 28.4091 159.27 28.6222 159.352 28.7642C159.438 28.9034 159.545 28.9972 159.676 29.0455C159.81 29.0909 159.95 29.1136 160.098 29.1136C160.209 29.1136 160.3 29.108 160.371 29.0966C160.442 29.0824 160.499 29.071 160.541 29.0625L160.746 29.9659C160.678 29.9915 160.582 30.017 160.46 30.0426C160.338 30.071 160.183 30.0852 159.996 30.0852C159.712 30.0852 159.433 30.0241 159.161 29.902C158.891 29.7798 158.666 29.5938 158.487 29.3438C158.311 29.0938 158.223 28.7784 158.223 28.3977V21.8864ZM164.728 30.1364C164.137 30.1364 163.619 29.9957 163.173 29.7145C162.729 29.4332 162.383 29.0398 162.133 28.5341C161.886 28.0284 161.762 27.4375 161.762 26.7614C161.762 26.0795 161.886 25.4844 162.133 24.9759C162.383 24.4673 162.729 24.0724 163.173 23.7912C163.619 23.5099 164.137 23.3693 164.728 23.3693C165.319 23.3693 165.836 23.5099 166.279 23.7912C166.725 24.0724 167.072 24.4673 167.319 24.9759C167.569 25.4844 167.694 26.0795 167.694 26.7614C167.694 27.4375 167.569 28.0284 167.319 28.5341C167.072 29.0398 166.725 29.4332 166.279 29.7145C165.836 29.9957 165.319 30.1364 164.728 30.1364ZM164.728 29.233C165.177 29.233 165.546 29.1179 165.836 28.8878C166.126 28.6577 166.34 28.3551 166.479 27.9801C166.619 27.6051 166.688 27.1989 166.688 26.7614C166.688 26.3239 166.619 25.9162 166.479 25.5384C166.34 25.1605 166.126 24.8551 165.836 24.6222C165.546 24.3892 165.177 24.2727 164.728 24.2727C164.279 24.2727 163.91 24.3892 163.62 24.6222C163.33 24.8551 163.116 25.1605 162.977 25.5384C162.837 25.9162 162.768 26.3239 162.768 26.7614C162.768 27.1989 162.837 27.6051 162.977 27.9801C163.116 28.3551 163.33 28.6577 163.62 28.8878C163.91 29.1179 164.279 29.233 164.728 29.233ZM174.07 18.4602V32.8125H173.218V18.4602H174.07ZM187.064 24H186.007C185.945 23.696 185.835 23.429 185.679 23.1989C185.526 22.9688 185.338 22.7756 185.116 22.6193C184.898 22.4602 184.655 22.3409 184.388 22.2614C184.121 22.1818 183.842 22.142 183.553 22.142C183.024 22.142 182.545 22.2756 182.116 22.5426C181.69 22.8097 181.351 23.2031 181.098 23.723C180.848 24.2429 180.723 24.8807 180.723 25.6364C180.723 26.392 180.848 27.0298 181.098 27.5497C181.351 28.0696 181.69 28.4631 182.116 28.7301C182.545 28.9972 183.024 29.1307 183.553 29.1307C183.842 29.1307 184.121 29.0909 184.388 29.0114C184.655 28.9318 184.898 28.8139 185.116 28.6577C185.338 28.4986 185.526 28.304 185.679 28.0739C185.835 27.8409 185.945 27.5739 186.007 27.2727H187.064C186.984 27.7187 186.839 28.1179 186.629 28.4702C186.419 28.8224 186.158 29.1222 185.845 29.3693C185.533 29.6136 185.182 29.7997 184.793 29.9276C184.406 30.0554 183.993 30.1193 183.553 30.1193C182.808 30.1193 182.146 29.9375 181.567 29.5739C180.987 29.2102 180.531 28.6932 180.199 28.0227C179.866 27.3523 179.7 26.5568 179.7 25.6364C179.7 24.7159 179.866 23.9205 180.199 23.25C180.531 22.5795 180.987 22.0625 181.567 21.6989C182.146 21.3352 182.808 21.1534 183.553 21.1534C183.993 21.1534 184.406 21.2173 184.793 21.3452C185.182 21.473 185.533 21.6605 185.845 21.9077C186.158 22.152 186.419 22.4503 186.629 22.8026C186.839 23.152 186.984 23.5511 187.064 24ZM190.561 30.1534C190.147 30.1534 189.77 30.0753 189.432 29.919C189.094 29.7599 188.826 29.5312 188.627 29.233C188.428 28.9318 188.328 28.5682 188.328 28.142C188.328 27.767 188.402 27.4631 188.55 27.2301C188.698 26.9943 188.895 26.8097 189.142 26.6761C189.39 26.5426 189.662 26.4432 189.961 26.3778C190.262 26.3097 190.564 26.2557 190.868 26.2159C191.266 26.1648 191.588 26.1264 191.836 26.1009C192.086 26.0724 192.267 26.0256 192.381 25.9602C192.498 25.8949 192.556 25.7812 192.556 25.6193V25.5852C192.556 25.1648 192.441 24.8381 192.211 24.6051C191.983 24.3722 191.638 24.2557 191.175 24.2557C190.695 24.2557 190.319 24.3608 190.046 24.571C189.773 24.7812 189.581 25.0057 189.471 25.2443L188.516 24.9034C188.686 24.5057 188.914 24.196 189.198 23.9744C189.485 23.75 189.797 23.5937 190.135 23.5057C190.476 23.4148 190.811 23.3693 191.141 23.3693C191.351 23.3693 191.593 23.3949 191.865 23.446C192.141 23.4943 192.407 23.5952 192.662 23.7486C192.921 23.902 193.135 24.1335 193.306 24.4432C193.476 24.7528 193.561 25.1676 193.561 25.6875V30H192.556V29.1136H192.505C192.436 29.2557 192.323 29.4077 192.164 29.5696C192.005 29.7315 191.793 29.8693 191.529 29.983C191.265 30.0966 190.942 30.1534 190.561 30.1534ZM190.715 29.25C191.113 29.25 191.448 29.1719 191.721 29.0156C191.996 28.8594 192.203 28.6577 192.343 28.4105C192.485 28.1634 192.556 27.9034 192.556 27.6307V26.7102C192.513 26.7614 192.419 26.8082 192.275 26.8509C192.132 26.8906 191.968 26.9261 191.78 26.9574C191.596 26.9858 191.415 27.0114 191.239 27.0341C191.066 27.054 190.925 27.071 190.817 27.0852C190.556 27.1193 190.311 27.1747 190.084 27.2514C189.86 27.3253 189.678 27.4375 189.539 27.5881C189.402 27.7358 189.334 27.9375 189.334 28.1932C189.334 28.5426 189.463 28.8068 189.722 28.9858C189.983 29.1619 190.314 29.25 190.715 29.25ZM198.244 23.4545V24.3068H194.852V23.4545H198.244ZM195.84 21.8864H196.846V28.125C196.846 28.4091 196.887 28.6222 196.969 28.7642C197.055 28.9034 197.163 28.9972 197.293 29.0455C197.427 29.0909 197.567 29.1136 197.715 29.1136C197.826 29.1136 197.917 29.108 197.988 29.0966C198.059 29.0824 198.116 29.071 198.158 29.0625L198.363 29.9659C198.295 29.9915 198.2 30.017 198.077 30.0426C197.955 30.071 197.8 30.0852 197.613 30.0852C197.329 30.0852 197.05 30.0241 196.778 29.902C196.508 29.7798 196.283 29.5938 196.104 29.3438C195.928 29.0938 195.84 28.7784 195.84 28.3977V21.8864ZM201.683 30.1534C201.268 30.1534 200.891 30.0753 200.553 29.919C200.215 29.7599 199.947 29.5312 199.748 29.233C199.549 28.9318 199.45 28.5682 199.45 28.142C199.45 27.767 199.523 27.4631 199.671 27.2301C199.819 26.9943 200.016 26.8097 200.263 26.6761C200.511 26.5426 200.783 26.4432 201.082 26.3778C201.383 26.3097 201.685 26.2557 201.989 26.2159C202.387 26.1648 202.71 26.1264 202.957 26.1009C203.207 26.0724 203.388 26.0256 203.502 25.9602C203.619 25.8949 203.677 25.7812 203.677 25.6193V25.5852C203.677 25.1648 203.562 24.8381 203.332 24.6051C203.104 24.3722 202.759 24.2557 202.296 24.2557C201.816 24.2557 201.44 24.3608 201.167 24.571C200.894 24.7812 200.702 25.0057 200.592 25.2443L199.637 24.9034C199.808 24.5057 200.035 24.196 200.319 23.9744C200.606 23.75 200.918 23.5937 201.256 23.5057C201.597 23.4148 201.933 23.3693 202.262 23.3693C202.472 23.3693 202.714 23.3949 202.987 23.446C203.262 23.4943 203.528 23.5952 203.783 23.7486C204.042 23.902 204.256 24.1335 204.427 24.4432C204.597 24.7528 204.683 25.1676 204.683 25.6875V30H203.677V29.1136H203.626C203.558 29.2557 203.444 29.4077 203.285 29.5696C203.126 29.7315 202.914 29.8693 202.65 29.983C202.386 30.0966 202.063 30.1534 201.683 30.1534ZM201.836 29.25C202.234 29.25 202.569 29.1719 202.842 29.0156C203.117 28.8594 203.325 28.6577 203.464 28.4105C203.606 28.1634 203.677 27.9034 203.677 27.6307V26.7102C203.634 26.7614 203.54 26.8082 203.396 26.8509C203.254 26.8906 203.089 26.9261 202.901 26.9574C202.717 26.9858 202.536 27.0114 202.36 27.0341C202.187 27.054 202.046 27.071 201.938 27.0852C201.677 27.1193 201.433 27.1747 201.205 27.2514C200.981 27.3253 200.799 27.4375 200.66 27.5881C200.523 27.7358 200.455 27.9375 200.455 28.1932C200.455 28.5426 200.585 28.8068 200.843 28.9858C201.104 29.1619 201.435 29.25 201.836 29.25ZM206.518 30V23.4545H207.49V24.4432H207.558C207.677 24.1193 207.893 23.8565 208.206 23.6548C208.518 23.4531 208.87 23.3523 209.262 23.3523C209.336 23.3523 209.429 23.3537 209.539 23.3565C209.65 23.3594 209.734 23.3636 209.791 23.3693V24.392C209.757 24.3835 209.679 24.3707 209.556 24.3537C209.437 24.3338 209.311 24.3239 209.177 24.3239C208.859 24.3239 208.575 24.3906 208.325 24.5241C208.078 24.6548 207.882 24.8366 207.737 25.0696C207.595 25.2997 207.524 25.5625 207.524 25.858V30H206.518ZM215.619 24.9205L214.716 25.1761C214.659 25.0256 214.575 24.8793 214.464 24.7372C214.357 24.5923 214.209 24.473 214.021 24.3793C213.834 24.2855 213.594 24.2386 213.301 24.2386C212.901 24.2386 212.567 24.331 212.3 24.5156C212.036 24.6974 211.903 24.929 211.903 25.2102C211.903 25.4602 211.994 25.6577 212.176 25.8026C212.358 25.9474 212.642 26.0682 213.028 26.1648L214 26.4034C214.585 26.5455 215.021 26.7628 215.308 27.0554C215.595 27.3452 215.739 27.7187 215.739 28.1761C215.739 28.5511 215.631 28.8864 215.415 29.1818C215.202 29.4773 214.903 29.7102 214.52 29.8807C214.136 30.0511 213.69 30.1364 213.182 30.1364C212.514 30.1364 211.962 29.9915 211.524 29.7017C211.087 29.4119 210.81 28.9886 210.693 28.4318L211.648 28.1932C211.739 28.5455 211.911 28.8097 212.163 28.9858C212.419 29.1619 212.753 29.25 213.165 29.25C213.634 29.25 214.006 29.1506 214.281 28.9517C214.56 28.75 214.699 28.5085 214.699 28.2273C214.699 28 214.619 27.8097 214.46 27.6562C214.301 27.5 214.057 27.3835 213.727 27.3068L212.636 27.0511C212.037 26.9091 211.597 26.6889 211.315 26.3906C211.037 26.0895 210.898 25.7131 210.898 25.2614C210.898 24.892 211.001 24.5653 211.209 24.2812C211.419 23.9972 211.705 23.7741 212.065 23.6122C212.429 23.4503 212.841 23.3693 213.301 23.3693C213.949 23.3693 214.457 23.5114 214.827 23.7955C215.199 24.0795 215.463 24.4545 215.619 24.9205ZM219.997 30.1364C219.366 30.1364 218.822 29.9972 218.365 29.7188C217.91 29.4375 217.559 29.0455 217.312 28.5426C217.068 28.0369 216.946 27.4489 216.946 26.7784C216.946 26.108 217.068 25.517 217.312 25.0057C217.559 24.4915 217.903 24.0909 218.343 23.804C218.787 23.5142 219.304 23.3693 219.895 23.3693C220.235 23.3693 220.572 23.4261 220.904 23.5398C221.237 23.6534 221.539 23.8381 221.812 24.0938C222.085 24.3466 222.302 24.6818 222.464 25.0994C222.626 25.517 222.707 26.0312 222.707 26.642V27.0682H217.662V26.1989H221.684C221.684 25.8295 221.61 25.5 221.463 25.2102C221.318 24.9205 221.11 24.6918 220.841 24.5241C220.574 24.3565 220.258 24.2727 219.895 24.2727C219.494 24.2727 219.147 24.3722 218.855 24.571C218.565 24.767 218.342 25.0227 218.186 25.3381C218.029 25.6534 217.951 25.9915 217.951 26.3523V26.9318C217.951 27.4261 218.037 27.8452 218.207 28.1889C218.38 28.5298 218.62 28.7898 218.927 28.9688C219.234 29.1449 219.591 29.233 219.997 29.233C220.261 29.233 220.5 29.196 220.713 29.1222C220.929 29.0455 221.115 28.9318 221.271 28.7812C221.427 28.6278 221.548 28.4375 221.633 28.2102L222.605 28.483C222.502 28.8125 222.331 29.1023 222.089 29.3523C221.848 29.5994 221.549 29.7926 221.194 29.9318C220.839 30.0682 220.44 30.1364 219.997 30.1364Z" fill="#9EA2A8"/>
</g>
</g>
<path d="M355 20V25M355 30V25M355 25H350M355 25H360" stroke="white" stroke-width="1.5" stroke-linecap="round" stroke-linejoin="round"/>
<rect width="681" height="64" transform="translate(0 42)" fill="#F8F8F8"/>
<path d="M28 74H16M16 74L22 68M16 74L22 80" stroke="#DDDFE1" stroke-width="1.5" stroke-linecap="round" stroke-linejoin="round"/>
<path d="M50 74H62M62 74L56 68M62 74L56 80" stroke="#DDDFE1" stroke-width="1.5" stroke-linecap="round" stroke-linejoin="round"/>
<rect x="84.5" y="54.5" width="555" height="39" rx="19.5" fill="white"/>
<rect x="84.5" y="54.5" width="555" height="39" rx="19.5" stroke="#DDDFE1"/>
<path d="M664.5 68.75C664.5 69.3023 664.052 69.75 663.5 69.75C662.948 69.75 662.5 69.3023 662.5 68.75C662.5 68.1977 662.948 67.75 663.5 67.75C664.052 67.75 664.5 68.1977 664.5 68.75ZM664.5 74C664.5 74.5523 664.052 75 663.5 75C662.948 75 662.5 74.5523 662.5 74C662.5 73.4477 662.948 73 663.5 73C664.052 73 664.5 73.4477 664.5 74ZM664.5 79.25C664.5 79.8023 664.052 80.25 663.5 80.25C662.948 80.25 662.5 79.8023 662.5 79.25C662.5 78.6977 662.948 78.25 663.5 78.25C664.052 78.25 664.5 78.6977 664.5 79.25Z" fill="#DDDFE1" stroke="#DDDFE1"/>
<rect width="681" height="1" transform="translate(0 106)" fill="#DDDFE1"/>
<rect y="107" width="681" height="20" fill="url(#paint0_linear_3021_3709)" fill-opacity="0.3"/>
</g>
<defs>
<linearGradient id="paint0_linear_3021_3709" x1="340.5" y1="107" x2="340.5" y2="127" gradientUnits="userSpaceOnUse">
<stop offset="0.182292" stop-color="#B6B6B6"/>
<stop offset="1" stop-color="#B6B6B6" stop-opacity="0"/>
</linearGradient>
<clipPath id="clip0_3021_3709">
<rect width="681" height="127" rx="8" fill="white"/>
</clipPath>
<clipPath id="clip1_3021_3709">
<rect width="252" height="34" fill="white" transform="translate(87 8)"/>
</clipPath>
<clipPath id="clip2_3021_3709">
<path d="M87 16C87 11.5817 90.5817 8 95 8H331C335.418 8 339 11.5817 339 16V42H87V16Z" fill="white"/>
</clipPath>
</defs>
</svg>
