<svg width="243" height="148" viewBox="0 0 243 148" fill="none" xmlns="http://www.w3.org/2000/svg">
<path d="M0 8C0 3.58173 3.58172 0 8 0H243V148H8C3.58172 148 0 144.418 0 140V8Z" fill="white"/>
<path d="M89.1005 59.0915L101.498 46.2692C101.498 46.2692 105.532 43.5207 107.538 44.3347C109.543 45.1486 113.377 45.3373 113.377 45.3373C113.377 45.3373 103.114 58.7494 101.486 64.5176" fill="white"/>
<path d="M128.263 89.9735C128.263 89.9735 143.315 81.964 146.441 78.26L147.444 83.4267L142.843 90.9053L131.944 98.8794L128.263 89.9852V89.9735Z" fill="white"/>
<path d="M108.871 63.4088L125.102 80.0648L118.437 84.3585L110.333 77.2691L104.742 70.2623L108.871 63.4088Z" fill="white"/>
<path d="M152.775 30.4507L160.054 31.3944L159.145 38.5428L155.146 34.1546L152.775 30.4507Z" fill="white"/>
<path d="M111.997 86.1752C111.407 84.7597 110.557 83.4975 109.472 82.4123C108.387 81.327 107.125 80.4777 105.709 79.8761C103.574 78.9796 101.227 78.7673 98.9737 79.2037C96.7207 79.652 94.6446 80.7608 93.0167 82.4005C88.4399 86.9773 85.7268 106.122 85.7268 106.122H85.7504V106.146C85.7504 106.146 104.895 103.445 109.472 98.8559C111.112 97.2163 112.221 95.152 112.669 92.8871C113.117 90.6223 112.893 88.2867 111.997 86.1516H111.985L111.997 86.1752Z" fill="#ECAF3B"/>
<path d="M85.7268 62.2882L89.1005 59.0914L101.486 64.5176L99.7759 68.2923L85.7268 62.2882Z" fill="#DC552E"/>
<path d="M132.817 101.003L128.712 104.07L123.592 92.2736L128.263 89.9734L132.828 101.014L132.817 101.003Z" fill="#DC552E"/>
<path d="M146.441 78.26C148.139 89.2185 137.004 93.4887 127.579 101.404L129.608 106.146L145.32 90.4335C147.137 88.6169 147.962 85.9746 147.455 83.4149L146.441 78.26Z" fill="#32383F"/>
<path d="M109.673 61.3444L113.624 54.6561L118.237 50.15L123.627 58.7965L139.304 71.8311L130.233 80.0647C130.233 80.0647 121.103 74.5796 116.514 69.7668C113.554 66.6644 109.673 61.3562 109.673 61.3562V61.3444Z" fill="#208C44"/>
<path d="M115.995 51.3532L120.619 46.6112L125.727 42.4L131.118 51.0465L146.795 64.0811L137.724 72.3147C137.724 72.3147 128.594 66.8296 124.005 62.0168C121.044 58.9144 115.995 51.3532 115.995 51.3532V51.3532Z" fill="#6AA744"/>
<path d="M123.592 43.5559L129.148 39.4391L134.869 36.3014L139.469 42.683L155.146 55.7176L146.075 63.9513C146.075 63.9513 135.506 59.2918 130.917 54.4909C127.957 51.3885 123.592 43.5559 123.592 43.5559V43.5559Z" fill="#ECAF3B"/>
<path d="M133.583 36.1364L137.016 34.7327L143.162 32.1611L147.762 38.5428L157.954 46.7764L153.271 55.4583C153.271 55.4583 146.288 50.9758 141.392 46.2338C137.794 42.754 133.583 36.1364 133.583 36.1364V36.1364Z" fill="#E87B35"/>
<path d="M142.253 32.4206L145.108 31.2528L152.292 30.5215L155.854 35.063L160.455 38.7787L159.169 48.4986C159.169 48.4986 154.155 45.7973 149.555 41.9518C146.252 39.1916 142.241 32.4088 142.241 32.4088L142.253 32.4206Z" fill="#D12E6A"/>
<path d="M117.824 83.8394C117.824 83.8394 131.731 76.4315 140.248 68.2922C155.017 54.196 159.511 39.1325 159.7 31.3471C159.7 30.9578 160.655 32.0195 160.466 31.4179C161.658 35.1218 165.067 51.4829 144.141 72.409C135.824 80.7606 121.304 86.7766 121.304 86.7766L117.824 83.8512V83.8394Z" fill="#32383F"/>
<path d="M136.143 45.7972C130.658 45.7972 126.223 50.2443 126.223 55.7177C126.223 61.191 130.67 65.6381 136.143 65.6381C141.616 65.6381 146.063 61.191 146.063 55.7177C146.063 50.2443 141.616 45.7972 136.143 45.7972Z" fill="white"/>
<path d="M128.971 63.0314C130.516 64.5766 132.439 65.5085 134.433 65.8624C133.218 65.4141 132.073 64.7182 131.094 63.7391C127.508 60.1531 127.508 54.3495 131.094 50.7635C134.68 47.1775 140.484 47.1775 144.07 50.7635C145.12 51.8133 145.851 53.0519 146.288 54.3613C145.993 52.2498 145.037 50.2091 143.409 48.5812C139.422 44.5942 132.958 44.5942 128.971 48.5812C124.984 52.5683 124.984 59.0325 128.971 63.0196V63.0314Z" fill="#32383F"/>
<path d="M111.985 86.1752C111.395 84.7597 110.546 83.4975 109.46 82.4123C108.375 81.327 107.113 80.4777 105.697 79.8761C103.562 78.9796 101.215 78.7673 98.9619 79.2037C96.7088 79.652 94.6327 80.7608 93.0049 82.4005C93.0049 82.4005 101.545 80.289 106.617 84.4176C111.702 88.558 109.472 98.8677 109.472 98.8677C111.112 97.2281 112.221 95.1638 112.669 92.8989C113.117 90.6341 112.893 88.2985 111.996 86.1634H111.985V86.1752Z" fill="#32383F"/>
<path d="M108.493 63.5031L109.425 61.6157L117.942 71.2767L128.369 79.5457L125.715 80.9376L114.91 71.2767L108.493 63.5031V63.5031Z" fill="#32383F"/>
<path d="M138.844 115.429C138.821 117.458 126.73 117.694 111.654 117.942C96.5673 118.201 80.6191 117.623 80.5011 115.594C80.3832 113.565 89.4189 112.008 110.947 112.751C126.034 113.271 138.868 112.917 138.832 115.429H138.844Z" fill="#32383F"/>
<path d="M109.425 85.3966C109.13 84.7006 108.717 84.0754 108.186 83.5446C107.656 83.0138 107.03 82.5891 106.335 82.2942C105.285 81.846 104.14 81.7398 103.032 81.9639C101.923 82.1763 100.897 82.7307 100.094 83.5328C97.8414 85.7859 96.5084 95.1991 96.5084 95.1991C96.5084 95.1991 105.922 93.8779 108.175 91.6249C108.977 90.8228 109.531 89.8083 109.744 88.6877C109.956 87.5789 109.85 86.4346 109.413 85.3848L109.425 85.3966Z" fill="white"/>
<path d="M133.501 102.678C133.324 102.678 133.147 102.571 133.076 102.395L127.886 90.3508C127.78 90.1149 127.886 89.8436 128.134 89.7374C128.369 89.6312 128.641 89.7374 128.747 89.9851L133.937 102.029C134.043 102.265 133.937 102.536 133.689 102.642C133.631 102.666 133.572 102.678 133.501 102.678V102.678Z" fill="#32383F"/>
<path d="M99.7641 68.7524C99.7051 68.7524 99.6343 68.7406 99.5753 68.717L85.5263 62.7011C85.3847 62.6421 85.2786 62.5123 85.255 62.359C85.2314 62.2056 85.2786 62.0523 85.3847 61.9461L101.097 46.2456C103.055 44.2875 105.827 43.45 108.529 43.9926L113.601 44.9835C113.601 44.9835 113.707 44.9835 113.766 45.0189C113.943 45.0896 114.061 45.2548 114.061 45.4553C114.061 45.5969 114.002 45.7384 113.896 45.821C106.393 54.2669 101.156 66.1691 100.177 68.4811C100.13 68.5991 100.035 68.6817 99.9174 68.7288C99.8584 68.7524 99.7995 68.7642 99.7405 68.7642L99.7641 68.7524ZM86.5407 62.1113L99.5282 67.6672C100.849 64.6238 105.78 53.8187 112.74 45.7384L108.375 44.8891C105.981 44.4055 103.503 45.1604 101.781 46.8944L86.5289 62.1231L86.5407 62.1113Z" fill="#32383F"/>
<path d="M129.608 106.606C129.608 106.606 129.549 106.606 129.525 106.606C129.372 106.571 129.242 106.476 129.183 106.335L123.167 92.2973C123.12 92.1794 123.12 92.0496 123.167 91.9434C123.215 91.8255 123.309 91.7311 123.415 91.6839C124.807 91.1059 137.287 85.7859 146.075 77.977C146.288 77.7175 146.759 77.8 146.877 78.1067C146.889 78.1539 146.901 78.2011 146.913 78.2483L147.904 83.3324C148.446 86.0336 147.597 88.8175 145.651 90.7638L129.938 106.476C129.856 106.559 129.726 106.618 129.608 106.618V106.606ZM124.205 92.3563L129.761 105.332L144.978 90.1151C146.712 88.3811 147.455 85.9157 146.984 83.5211L146.134 79.1684C137.877 86.2814 126.801 91.2593 124.205 92.3681V92.3563Z" fill="#32383F"/>
<path d="M121.304 87.225C121.209 87.225 121.103 87.1896 121.032 87.1306C120.773 86.9301 114.509 82.2824 111.678 79.298C108.847 76.3254 104.789 70.8993 104.754 70.8403C104.659 70.7105 104.636 70.5336 104.695 70.3803C104.754 70.2387 110.829 55.6824 119.157 47.3898C140.626 25.9329 157.458 29.9435 160.608 30.9698C160.75 31.0169 160.856 31.1231 160.903 31.2647C161.917 34.426 165.881 51.3061 144.459 72.7159C136.167 81.0439 121.622 87.1188 121.469 87.1778C121.41 87.2014 121.351 87.2132 121.292 87.2132L121.304 87.225ZM105.65 70.4982C106.429 71.5245 109.873 76.0541 112.35 78.6611C114.839 81.2916 120.242 85.373 121.374 86.2223C123.297 85.3966 136.237 79.6755 143.81 72.0671C152.646 63.2437 158.131 54.2551 160.136 45.3491C161.67 38.5192 160.679 33.73 160.089 31.7837C156.503 30.6984 140.413 27.4427 119.806 48.0622C112.197 55.6352 106.476 68.5755 105.65 70.4982V70.4982ZM136.167 63.9632C136.167 63.9632 136.108 63.9632 136.072 63.9632C133.937 63.9396 131.908 63.0785 130.339 61.5332C128.771 59.9644 127.909 57.9001 127.909 55.7178C127.933 51.1763 131.613 47.496 136.131 47.496C138.325 47.496 140.39 48.3571 141.958 49.926C143.527 51.4948 144.388 53.5591 144.388 55.7532C144.388 60.2711 140.696 63.9632 136.167 63.975V63.9632ZM136.143 48.4161C132.132 48.4161 128.865 51.6954 128.841 55.7178C128.841 57.6406 129.608 59.4689 131 60.8727C132.404 62.2646 134.232 63.0313 136.155 63.0313C136.178 63.0313 136.214 63.0313 136.237 63.0313C140.224 62.9724 143.457 59.7167 143.457 55.7414C143.457 53.7951 142.69 51.9667 141.298 50.5747C139.906 49.1828 138.078 48.4161 136.131 48.4161H136.143Z" fill="#32383F"/>
<path d="M85.7504 106.617C85.6442 106.617 85.5263 106.582 85.4437 106.5C85.3965 106.464 85.3611 106.405 85.3375 106.358C85.2785 106.264 85.2549 106.157 85.2667 106.063C85.3729 105.273 88.0506 86.7058 92.6864 82.07C94.3969 80.3596 96.5319 79.2036 98.8793 78.7435C101.262 78.2717 103.68 78.5194 105.886 79.4395C107.349 80.0529 108.67 80.9376 109.802 82.07C110.899 83.167 111.761 84.4528 112.386 85.8801C112.409 85.9155 112.433 85.9509 112.445 85.9863C113.377 88.2039 113.613 90.6221 113.141 92.9931C112.669 95.3405 111.525 97.4874 109.814 99.1978C105.178 103.834 86.6115 106.5 85.8212 106.617C85.7976 106.617 85.774 106.617 85.7504 106.617V106.617ZM101.25 79.4395C100.519 79.4395 99.7876 79.5103 99.0563 79.6518C96.8976 80.0765 94.9159 81.1381 93.3352 82.7188C89.36 86.694 86.7648 102.347 86.2694 105.591C89.5133 105.096 105.167 102.501 109.142 98.5254C110.723 96.9448 111.784 94.963 112.221 92.7926C112.645 90.6457 112.445 88.4398 111.619 86.4227C111.595 86.3873 111.572 86.3637 111.56 86.3283C110.994 84.9718 110.18 83.745 109.142 82.707C108.092 81.6571 106.877 80.8432 105.521 80.277C104.164 79.7108 102.713 79.4159 101.25 79.4159V79.4395Z" fill="#32383F"/>
<path d="M96.5202 95.6826C96.414 95.6826 96.2961 95.6472 96.2135 95.5647C96.1781 95.5293 96.1427 95.4939 96.1191 95.4467C96.0602 95.3523 96.0366 95.2462 96.0484 95.14C96.1073 94.7507 97.4285 85.5381 99.7641 83.2024C100.637 82.3295 101.734 81.7397 102.937 81.5038C104.14 81.2561 105.379 81.3859 106.511 81.8577C107.255 82.1644 107.939 82.6244 108.517 83.2024C109.071 83.7687 109.508 84.4174 109.826 85.1252C109.838 85.1488 109.861 85.1724 109.861 85.2078C110.333 86.3402 110.451 87.5788 110.215 88.782C109.979 89.9852 109.39 91.0822 108.517 91.9551C106.181 94.2907 96.9684 95.6119 96.5792 95.6708C96.5556 95.6708 96.532 95.6708 96.5084 95.6708L96.5202 95.6826ZM104.164 82.3177C103.822 82.3177 103.468 82.3531 103.126 82.4239C102.112 82.6244 101.18 83.1199 100.425 83.863C98.785 85.5027 97.5229 91.7192 97.0628 94.6564C99.1625 94.3261 106.063 93.0993 107.856 91.2945C108.599 90.5514 109.107 89.6195 109.295 88.605C109.496 87.6024 109.401 86.5761 109.024 85.6324C109.012 85.6088 109 85.5852 108.989 85.5616C108.729 84.9247 108.34 84.3585 107.856 83.8512C107.361 83.3558 106.795 82.9783 106.158 82.707C105.521 82.4357 104.836 82.3059 104.164 82.3059V82.3177Z" fill="#32383F"/>
<path d="M136.143 66.1219C130.41 66.1219 125.751 61.4624 125.751 55.7296C125.751 49.9967 130.41 45.3373 136.143 45.3373C141.876 45.3373 146.535 49.9967 146.535 55.7296C146.535 61.4624 141.876 66.1219 136.143 66.1219V66.1219ZM136.143 46.2692C130.929 46.2692 126.683 50.5157 126.683 55.7296C126.683 60.9434 130.929 65.19 136.143 65.19C141.357 65.19 145.603 60.9434 145.603 55.7296C145.603 50.5157 141.357 46.2692 136.143 46.2692Z" fill="#32383F"/>
<path d="M101.026 64.6591C100.967 64.6591 100.908 64.6473 100.838 64.6237L88.782 59.457C88.5461 59.3509 88.4399 59.0796 88.5343 58.8437C88.6405 58.6077 88.9118 58.5016 89.1477 58.5959L101.203 63.7626C101.439 63.8688 101.545 64.1401 101.451 64.376C101.38 64.5529 101.203 64.6591 101.026 64.6591V64.6591Z" fill="#32383F"/>
<path d="M133.513 102.678C133.336 102.678 133.159 102.571 133.088 102.395L127.886 90.3508C127.78 90.1149 127.886 89.8436 128.134 89.7374C128.369 89.6312 128.641 89.7374 128.747 89.9851L133.949 102.029C134.055 102.265 133.949 102.536 133.701 102.642C133.642 102.666 133.583 102.678 133.513 102.678V102.678Z" fill="#32383F"/>
<path d="M161.115 39.9112C161.021 39.9112 160.938 39.8876 160.856 39.8286C160.785 39.7814 159.169 38.6844 155.901 35.8651C153.849 34.0839 152.044 31.0524 151.973 30.9226C151.843 30.6985 151.914 30.4154 152.138 30.2856C152.363 30.1559 152.646 30.2266 152.775 30.4508C152.799 30.4861 154.568 33.4823 156.515 35.1692C159.735 37.9412 161.363 39.0501 161.386 39.0619C161.599 39.2034 161.658 39.4983 161.516 39.7106C161.422 39.8404 161.28 39.9112 161.127 39.9112H161.115Z" fill="#32383F"/>
<path d="M125.715 80.7253C125.633 80.7253 125.562 80.7017 125.479 80.6663C125.302 80.5601 121.103 78.1065 115.264 72.3147C112.858 69.9319 108.328 64.2344 108.139 63.9985C107.974 63.798 108.01 63.5031 108.21 63.3497C108.411 63.1846 108.705 63.22 108.859 63.4205C108.906 63.4795 113.542 69.3185 115.901 71.6541C121.646 77.3516 125.88 79.8406 125.928 79.8642C126.152 79.9939 126.223 80.277 126.093 80.5011C126.01 80.6545 125.845 80.7371 125.692 80.7371L125.715 80.7253Z" fill="#32383F"/>
<path d="M127.461 79.0504C127.379 79.0504 127.296 79.0268 127.225 78.9914C127.048 78.8853 122.778 76.3373 116.798 70.4157C114.332 67.974 109.685 62.1585 109.496 61.9108C109.331 61.7103 109.366 61.4154 109.567 61.262C109.767 61.1087 110.062 61.1323 110.215 61.3328C110.263 61.3918 115.028 67.3488 117.446 69.7552C123.333 75.5824 127.65 78.1657 127.685 78.1893C127.909 78.3191 127.98 78.6022 127.85 78.8263C127.768 78.9679 127.615 79.0504 127.449 79.0504H127.461Z" fill="#32383F"/>
</svg>
