<svg width="243" height="148" viewBox="0 0 243 148" fill="none" xmlns="http://www.w3.org/2000/svg">
<path d="M0 8C0 3.58173 3.58172 0 8 0H243V148H8C3.58172 148 0 144.418 0 140V8Z" fill="white"/>
<path d="M66.8881 93.5955V38.3242L151.347 38.6984L151.735 60.9289L153.648 60.4438L155.727 63.6454L156.004 65.059L155.353 66.1955L151.916 67.6646L151.763 76.3267L158.277 83.5336L171 95.6606L173.8 97.7534L168.173 103.353L164.735 106.18L148.88 101.454L69.2442 101.204L66.8881 93.5955Z" fill="white"/>
<path d="M66.8881 53.7358H74.0811V101.204H70.5747C68.5373 101.204 66.8881 99.555 66.8881 97.5177V53.7358V53.7358Z" fill="#D73075"/>
<path d="M79.8327 58.5173H74.0811V101.204H79.8327V58.5173Z" fill="#E15E2B"/>
<path d="M84.933 50.5482H79.7357V101.204H84.933V50.5482Z" fill="#EB862F"/>
<path d="M91.2114 66.0569H84.9469V101.19H91.2114V66.0569Z" fill="#EFB72E"/>
<path d="M95.9096 59.0024H91.2113V101.204H95.9096V59.0024Z" fill="#73B043"/>
<path d="M99.8457 56.5354H95.9097V101.204H99.8457V56.5354Z" fill="#1F9747"/>
<path d="M151.347 38.7122H67.2622C67.2622 36.2175 66.7356 34.499 69.2164 34.499L148.7 34.4574C151.181 34.4574 151.347 36.2037 151.347 38.6984V38.7122Z" fill="#EFB72E"/>
<path d="M174.035 97.4346C175.768 95.2448 176.516 93.5262 175.92 92.7639C175.241 91.8908 172.913 92.459 169.794 94.0529" fill="#383F48"/>
<path d="M121.702 76.0772L121.134 74.7883C120.87 74.1923 120.164 73.9151 119.568 74.1923L105.611 80.3736C105.015 80.6369 104.738 81.3438 105.015 81.9397L107.413 87.3449C107.676 87.9408 108.383 88.218 108.979 87.9408L118.376 83.783L114.564 82.0922L112.167 80.6369L111.876 78.6689L112.943 77.4631L115.382 76.3544L119.041 75.9386L121.716 76.0772H121.702Z" fill="#EB862F"/>
<path d="M114.564 82.1061L113.539 81.4824L106.124 84.4206L107.427 87.3588C107.69 87.9548 108.397 88.232 108.993 87.9548L118.39 83.7969L114.578 82.1061H114.564Z" fill="#E15E2B"/>
<path d="M100.483 86.3054L98.141 88.7724L101.564 88.3012L100.483 86.3054Z" fill="#383F48"/>
<path d="M154.369 60.8041L156.96 59.6399C158.028 59.1548 159.289 59.6399 159.774 60.7071C160.259 61.7742 159.774 63.0354 158.707 63.5205L156.087 64.6986" fill="#EFB72E"/>
<path d="M145.208 96.6862C145.208 96.6862 146.635 98.1691 152.9 100.844C159.164 103.519 160.093 102.812 162.185 103.63C164.278 104.447 165.054 105.944 165.054 105.944L160.605 109.298L156.309 111.557C153.454 112.957 151.347 113.414 150.696 112.583C150.045 111.751 150.987 109.825 153.01 107.386" fill="#383F48"/>
<path d="M127.994 67.9695C126.996 68.9674 126.525 68.9396 126.525 70.1315C126.525 71.3235 126.262 72.0857 126.262 72.0857L130.115 70.6305L129.408 69.3554L128.008 67.9695H127.994Z" fill="#383F48"/>
<path d="M149.171 101.62C149.019 101.482 148.894 101.343 148.783 101.204H69.2442C67.9414 101.204 68.0939 101.537 69.4105 101.537L150.183 102.59C149.864 102.258 149.532 101.939 149.158 101.62H149.171Z" fill="#383F48"/>
<path d="M151.223 60.6794C151.361 60.624 151.486 60.5685 151.624 60.5131C151.819 60.4438 152.013 60.4022 152.207 60.3607C152.373 60.3191 152.941 60.125 152.29 60.4022C152.567 60.2914 152.844 60.2082 153.107 60.1666V39.3498C153.107 37.063 150.848 34.1941 149.767 34.1941L151.333 35.9265L151.209 60.6656L151.223 60.6794Z" fill="#383F48"/>
<path d="M151.181 67.7477L151.139 75.5505C151.361 75.8 151.555 76.0494 151.763 76.3128C151.832 76.4098 152.304 77.1305 151.971 76.6177C152.179 76.9503 152.525 77.2413 152.803 77.5185C152.913 77.6294 153.01 77.7403 153.107 77.865V67.2626C152.47 67.5398 151.846 67.7338 151.181 67.7477Z" fill="#383F48"/>
<path d="M148.478 101.592H69.2442C67.7335 101.592 66.5 100.359 66.5 98.8482V36.7442C66.5 35.2335 67.7335 34 69.2442 34H148.991C150.502 34 151.735 35.2335 151.735 36.7442V60.9288H150.945V36.7442C150.945 35.6631 150.072 34.79 148.991 34.79H69.2442C68.1631 34.79 67.29 35.6631 67.29 36.7442V98.8482C67.29 99.9292 68.1631 100.802 69.2442 100.802H148.478V101.592V101.592Z" fill="#383F48"/>
<path d="M151.735 67.6646H150.945V75.7584H151.735V67.6646Z" fill="#383F48"/>
<path d="M151.333 38.3241H66.8881V39.1141H151.333V38.3241Z" fill="#383F48"/>
<path d="M151.333 47.0695H66.8881V47.8594H151.333V47.0695Z" fill="#383F48"/>
<path d="M71.5726 45.5034C71.4756 45.5034 71.3785 45.4618 71.2954 45.3925L69.3274 43.4245C69.1749 43.272 69.1749 43.0225 69.3274 42.8701L71.4478 40.7496C71.6003 40.5971 71.8498 40.5971 72.0022 40.7496C72.1547 40.902 72.1547 41.1515 72.0022 41.304L70.1589 43.1473L71.8498 44.8381C72.0022 44.9906 72.0022 45.24 71.8498 45.3925C71.7666 45.4757 71.6696 45.5034 71.5726 45.5034Z" fill="#383F48"/>
<path d="M74.7187 45.5034C74.6217 45.5034 74.5246 45.4618 74.4415 45.3925C74.289 45.24 74.289 44.9906 74.4415 44.8381L76.2848 42.9948L74.5939 41.304C74.4415 41.1515 74.4415 40.902 74.5939 40.7496C74.7464 40.5971 74.9959 40.5971 75.1483 40.7496L77.1164 42.7176C77.2688 42.8701 77.2688 43.1196 77.1164 43.272L74.9959 45.3925C74.9127 45.4757 74.8157 45.5034 74.7187 45.5034Z" fill="#383F48"/>
<path d="M82.6462 42.2325C82.5492 42.2325 82.4521 42.1909 82.369 42.1216C82.2165 41.9691 82.2165 41.7197 82.369 41.5672L82.8541 41.0821L82.4244 40.6525C82.272 40.5 82.272 40.2506 82.4244 40.0981C82.5769 39.9457 82.8263 39.9457 82.9788 40.0981L83.6856 40.8049C83.8381 40.9574 83.8381 41.2069 83.6856 41.3593L82.9234 42.1216C82.8402 42.2047 82.7432 42.2325 82.6462 42.2325Z" fill="#383F48"/>
<path d="M82.6463 45.4202C81.3435 45.4202 80.2902 44.3669 80.2902 43.0641C80.2902 41.7613 81.3435 40.708 82.6463 40.708C82.868 40.708 83.0343 40.8882 83.0343 41.0961C83.0343 41.304 82.8542 41.4841 82.6463 41.4841C81.787 41.4841 81.0801 42.191 81.0801 43.0502C81.0801 43.9095 81.787 44.6164 82.6463 44.6164C83.5055 44.6164 84.2124 43.9095 84.2124 43.0502C84.2124 42.8285 84.3925 42.6622 84.6004 42.6622C84.8083 42.6622 84.9885 42.8424 84.9885 43.0502C84.9885 44.353 83.9352 45.4063 82.6324 45.4063L82.6463 45.4202Z" fill="#383F48"/>
<path d="M140.773 45.5033H88.9245C87.8435 45.5033 86.9703 44.6301 86.9703 43.5491V42.3433C86.9703 41.2623 87.8435 40.3892 88.9245 40.3892H140.773C141.854 40.3892 142.727 41.2623 142.727 42.3433V43.5491C142.727 44.6301 141.854 45.5033 140.773 45.5033ZM88.9245 41.1653C88.2731 41.1653 87.7465 41.6919 87.7465 42.3433V43.5491C87.7465 44.2005 88.2731 44.7272 88.9245 44.7272H140.773C141.424 44.7272 141.951 44.2005 141.951 43.5491V42.3433C141.951 41.6919 141.424 41.1653 140.773 41.1653H88.9245Z" fill="#383F48"/>
<path d="M146.399 44.2698C145.36 44.2698 144.528 43.4243 144.528 42.3987C144.528 41.3731 145.374 40.5277 146.399 40.5277C147.425 40.5277 148.27 41.3731 148.27 42.3987C148.27 43.4243 147.425 44.2698 146.399 44.2698ZM146.399 41.3038C145.79 41.3038 145.305 41.7889 145.305 42.3987C145.305 43.0085 145.79 43.4936 146.399 43.4936C147.009 43.4936 147.494 43.0085 147.494 42.3987C147.494 41.7889 147.009 41.3038 146.399 41.3038Z" fill="#383F48"/>
<path d="M149.102 45.3508C149.005 45.3508 148.908 45.3092 148.825 45.2399L147.286 43.7016C147.134 43.5491 147.134 43.2996 147.286 43.1472C147.439 42.9947 147.688 42.9947 147.841 43.1472L149.379 44.6856C149.532 44.838 149.532 45.0875 149.379 45.2399C149.296 45.3231 149.199 45.3508 149.102 45.3508V45.3508Z" fill="#383F48"/>
<path d="M143.17 37.5757H141.521C141.299 37.5757 141.133 37.3955 141.133 37.1876C141.133 36.9797 141.313 36.7996 141.521 36.7996H143.17C143.392 36.7996 143.558 36.9797 143.558 37.1876C143.558 37.3955 143.378 37.5757 143.17 37.5757Z" fill="#383F48"/>
<path d="M149.352 37.5896C149.255 37.5896 149.157 37.548 149.074 37.4787L147.619 36.0235C147.467 35.871 147.467 35.6215 147.619 35.4691C147.772 35.3166 148.021 35.3166 148.173 35.4691L149.629 36.9243C149.781 37.0768 149.781 37.3262 149.629 37.4787C149.546 37.5618 149.449 37.5896 149.352 37.5896V37.5896Z" fill="#383F48"/>
<path d="M147.882 37.5896C147.785 37.5896 147.688 37.548 147.605 37.4787C147.453 37.3262 147.453 37.0768 147.605 36.9243L149.061 35.4691C149.213 35.3166 149.462 35.3166 149.615 35.4691C149.767 35.6215 149.767 35.871 149.615 36.0235L148.16 37.4787C148.077 37.5618 147.98 37.5896 147.882 37.5896V37.5896Z" fill="#383F48"/>
<path d="M145.942 37.5757H145.263C144.833 37.5757 144.473 37.2292 144.473 36.7857V36.1066C144.473 35.677 144.82 35.3167 145.263 35.3167H145.942C146.372 35.3167 146.732 35.6631 146.732 36.1066V36.7857C146.732 37.2154 146.386 37.5757 145.942 37.5757ZM145.263 36.1066V36.7857H145.942V36.1066H145.263Z" fill="#383F48"/>
<path d="M133.011 76.3682C132.859 76.3682 132.72 76.285 132.651 76.1326C132.568 75.9386 132.651 75.703 132.845 75.6198L155.186 65.6133C155.394 65.5163 155.561 65.35 155.644 65.1282C155.727 64.9065 155.727 64.6709 155.63 64.463L154.189 61.2337C154.092 61.0258 153.925 60.8595 153.703 60.7764C153.482 60.6932 153.246 60.6932 153.038 60.7902L121.356 74.9823C121.162 75.0654 120.926 74.9823 120.843 74.7882C120.76 74.5942 120.843 74.3586 121.037 74.2754L152.719 60.0834C153.121 59.9032 153.579 59.8894 153.994 60.0418C154.41 60.1943 154.743 60.513 154.923 60.915L156.364 64.1442C156.545 64.5461 156.558 65.0035 156.406 65.4193C156.254 65.8351 155.935 66.1677 155.533 66.3479L133.192 76.3543C133.192 76.3543 133.081 76.3821 133.025 76.3821L133.011 76.3682Z" fill="#383F48"/>
<path d="M156.087 65.0866C155.935 65.0866 155.796 65.0035 155.727 64.851C155.644 64.657 155.727 64.4214 155.921 64.3382L158.54 63.1602C158.97 62.9661 159.289 62.6335 159.455 62.19C159.621 61.7465 159.608 61.2892 159.414 60.8595C159.025 59.9864 158 59.5983 157.127 59.9864L154.535 61.1506C154.341 61.2337 154.105 61.1506 154.022 60.9565C153.939 60.7625 154.022 60.5269 154.216 60.4437L156.808 59.2795C158.069 58.7113 159.566 59.2795 160.134 60.5407C160.411 61.1506 160.425 61.8435 160.19 62.4672C159.954 63.0909 159.483 63.5898 158.873 63.867L156.254 65.0451C156.254 65.0451 156.143 65.0728 156.087 65.0728V65.0866Z" fill="#383F48"/>
<path d="M108.508 88.4397C107.898 88.4397 107.33 88.0932 107.066 87.4973L104.669 82.0921C104.503 81.704 104.489 81.2744 104.641 80.8863C104.794 80.4983 105.085 80.1795 105.473 80.0132L119.429 73.8319C119.817 73.6656 120.247 73.6517 120.635 73.8042C121.023 73.9566 121.342 74.2477 121.508 74.6357L122.076 75.9247C122.159 76.1187 122.076 76.3543 121.882 76.4375C121.688 76.5206 121.453 76.4375 121.369 76.2434L120.801 74.9545C120.621 74.5526 120.15 74.3724 119.762 74.5526L105.805 80.7339C105.611 80.817 105.459 80.9695 105.39 81.1774C105.306 81.3714 105.32 81.5932 105.403 81.7872L107.801 87.1924C107.981 87.5943 108.439 87.7745 108.84 87.5943L118.237 83.4365C118.431 83.3533 118.667 83.4365 118.75 83.6305C118.833 83.8245 118.75 84.0601 118.556 84.1433L109.159 88.3011C108.951 88.3981 108.743 88.4397 108.522 88.4397H108.508Z" fill="#383F48"/>
<path d="M98.0441 89.1743C97.8916 89.1743 97.7669 89.0911 97.6976 88.9525C97.6283 88.8001 97.656 88.6199 97.7669 88.509L104.697 81.4685C104.849 81.316 105.098 81.316 105.251 81.4685C105.403 81.6209 105.403 81.8704 105.251 82.0228L99.1251 88.2457L107.33 87.137C107.552 87.1092 107.746 87.2617 107.773 87.4696C107.801 87.6775 107.649 87.8854 107.441 87.9131L98.0995 89.1743C98.0995 89.1743 98.0579 89.1743 98.0441 89.1743V89.1743Z" fill="#383F48"/>
<path d="M110.227 78.7381C110.227 78.7381 110.157 78.7381 110.116 78.7242C109.908 78.6688 109.797 78.447 109.852 78.2391C111.28 73.4577 113.165 69.0504 113.872 67.3872L113.996 67.0823C114.163 66.6943 114.537 65.7934 115.41 64.9757C115.784 64.6153 116.131 64.3797 116.394 64.2273C119.582 62.2592 123.878 60.9842 124.058 60.9287C126.844 60.111 128.23 59.6953 128.992 59.6121C132.235 59.224 134.744 59.8061 138.209 60.6238C138.555 60.707 139.262 60.8733 140.107 61.2752C141.285 61.8296 142.062 62.5087 142.685 63.1047C143.059 63.465 143.42 63.8392 143.794 64.255C143.933 64.4213 143.919 64.6569 143.766 64.8094C143.6 64.948 143.364 64.9341 143.212 64.7817C142.865 64.3936 142.505 64.0194 142.145 63.6729C141.577 63.1185 140.842 62.4949 139.775 61.9821C138.999 61.6217 138.347 61.4693 138.042 61.3861C134.661 60.5823 132.208 60.014 129.103 60.3882C128.41 60.4714 126.941 60.901 124.294 61.6772C124.252 61.6772 119.928 62.9799 116.824 64.8925C116.602 65.0311 116.297 65.2252 115.978 65.5439C115.23 66.2646 114.897 67.0546 114.745 67.4011L114.62 67.706C113.913 69.3553 112.042 73.7487 110.628 78.4748C110.573 78.6411 110.421 78.7519 110.254 78.7519L110.227 78.7381Z" fill="#383F48"/>
<path d="M174.035 97.8225C173.952 97.8225 173.883 97.7948 173.813 97.7532C165.817 92.0432 159.386 85.1966 156.988 82.5217C156.614 82.0921 156.115 81.5932 155.533 81.0111C153.939 79.3895 151.763 77.1859 149.56 74.1922C148.88 73.2637 147.91 71.656 147.148 70.367L146.829 69.8265C146.718 69.6463 146.774 69.3969 146.968 69.286C147.148 69.1751 147.397 69.2306 147.508 69.4246L147.827 69.9651C148.576 71.2402 149.532 72.8202 150.197 73.721C152.359 76.6731 154.521 78.8629 156.087 80.4567C156.669 81.0526 157.182 81.5654 157.556 81.9951C159.94 84.6561 166.329 91.4472 174.257 97.1018C174.437 97.2266 174.479 97.476 174.354 97.6424C174.271 97.7532 174.16 97.8087 174.035 97.8087V97.8225Z" fill="#383F48"/>
<path d="M155.769 111.627C155.644 111.627 155.533 111.571 155.45 111.46L146.413 98.9867L143.448 94.9675C143.309 94.8705 142.436 94.3715 138.597 93.1381C133.968 91.6551 130.558 88.6476 130.42 88.5229C129.644 87.5111 128.784 86.7766 127.814 86.2777C126.664 85.6956 125.68 85.5985 124.71 85.5154L124.446 85.4877C120.358 85.0996 118.085 84.0879 113.553 82.0782C112.957 81.8149 111.723 81.2605 111.446 80.1241C111.197 79.0708 111.599 78.1145 111.931 77.7403C113.054 76.4513 114.315 75.9524 117.101 75.6891C118.431 75.5643 119.097 75.6336 121.092 75.8554C122.104 75.9663 123.476 76.1187 125.472 76.2989C127.093 76.4513 128.382 76.5345 130.101 76.382C131.279 76.2712 132.194 75.897 132.928 75.592C133.136 75.5089 133.358 75.592 133.441 75.7999C133.524 75.994 133.441 76.2296 133.233 76.3127C132.499 76.6176 131.473 77.0473 130.17 77.172C128.382 77.3383 127.066 77.2413 125.403 77.0889C123.407 76.9087 122.021 76.7562 121.009 76.6454C119.027 76.4236 118.431 76.3682 117.184 76.479C114.606 76.7285 113.511 77.1443 112.541 78.2669C112.416 78.4055 112.014 79.0846 112.222 79.9578C112.402 80.72 113.373 81.1497 113.885 81.3853C118.334 83.3672 120.58 84.3651 124.529 84.7254L124.793 84.7531C125.777 84.8363 126.886 84.9471 128.174 85.5985C129.255 86.1529 130.212 86.9568 131.002 88.0101C131.002 88.0101 134.411 90.9899 138.846 92.4174C143.198 93.8033 143.919 94.3161 144.03 94.4408L147.065 98.5432L156.101 111.031C156.226 111.211 156.184 111.446 156.018 111.571C155.949 111.627 155.866 111.64 155.782 111.64L155.769 111.627Z" fill="#383F48"/>
<path d="M117.087 75.5643C117.087 75.5643 117.004 75.5643 116.976 75.5505C116.768 75.4812 116.657 75.2733 116.713 75.0654C117.004 74.0952 117.905 71.9054 119.152 70.5195C119.734 69.882 121.009 68.6762 122.991 67.9001C124.474 67.318 126.151 66.6666 127.856 67.4427C129.089 68.0109 130.212 69.7849 130.447 70.2284C130.544 70.4225 130.475 70.6581 130.281 70.7551C130.087 70.8521 129.851 70.7828 129.754 70.5888C129.505 70.1037 128.452 68.5792 127.523 68.1495C126.137 67.512 124.682 68.0802 123.282 68.6346C121.439 69.3553 120.261 70.4641 119.734 71.0462C118.528 72.3767 117.683 74.5664 117.461 75.2871C117.406 75.4534 117.253 75.5643 117.087 75.5643V75.5643Z" fill="#383F48"/>
<path d="M122.187 74.3586C121.979 74.3586 121.813 74.2061 121.799 73.9982C121.744 73.236 121.716 71.7669 122.201 70.6442C122.797 69.2306 124.211 67.6922 124.682 67.3457C124.848 67.221 125.098 67.2487 125.236 67.4289C125.361 67.609 125.333 67.8446 125.153 67.9832C124.793 68.2466 123.462 69.6879 122.936 70.963C122.506 71.9747 122.561 73.3884 122.603 73.9566C122.617 74.1784 122.45 74.3586 122.243 74.3724H122.215L122.187 74.3586Z" fill="#383F48"/>
<path d="M126.276 72.5846C126.082 72.5846 125.915 72.446 125.888 72.252C125.888 72.1965 125.707 70.9353 125.929 70.1869C126.262 69.0643 127.26 67.9694 127.592 67.7338C127.773 67.6091 128.008 67.6507 128.133 67.8308C128.258 68.011 128.216 68.2466 128.036 68.3713C127.842 68.5099 126.955 69.4801 126.678 70.4087C126.553 70.8383 126.594 71.6976 126.664 72.1411C126.691 72.349 126.539 72.5569 126.331 72.5846C126.317 72.5846 126.29 72.5846 126.276 72.5846V72.5846Z" fill="#383F48"/>
<path d="M151.805 113.401C151.139 113.401 150.668 113.206 150.363 112.832C149.393 111.599 151.098 109.063 152.692 107.15L153.301 107.649C151.029 110.393 150.627 111.89 150.987 112.347C151.347 112.805 152.803 112.777 155.796 111.363C158.582 110.047 161.964 107.871 165.304 105.237C168.644 102.604 171.568 99.846 173.508 97.4483C175.601 94.8705 175.962 93.4568 175.601 92.9995C175.213 92.5005 173.508 92.5837 169.96 94.3993L169.6 93.7063C172.053 92.4451 175.185 91.2254 176.211 92.5282C176.959 93.4845 176.253 95.3001 174.104 97.9473C172.123 100.387 169.17 103.2 165.775 105.861C162.379 108.522 158.956 110.739 156.115 112.084C154.244 112.971 152.803 113.414 151.791 113.414L151.805 113.401Z" fill="#383F48"/>
<path d="M116.99 82.2169C116.228 82.2169 115.382 81.8981 114.842 81.6071C113.968 81.1497 113.483 80.8864 113.22 80.2904C113.151 80.138 112.846 79.3341 113.248 78.5303C113.553 77.9205 114.065 77.671 114.62 77.4354C116.74 76.5484 118.251 77.4631 118.611 78.0175C119.332 79.1124 119.124 80.7755 118.14 81.7873C117.849 82.0922 117.433 82.203 116.976 82.203L116.99 82.2169ZM116.338 77.865C115.937 77.865 115.451 77.9482 114.911 78.1699C114.454 78.364 114.121 78.5164 113.941 78.8906C113.677 79.4034 113.913 79.9578 113.927 79.9855C114.065 80.3182 114.37 80.4845 115.202 80.9141C116.061 81.3715 117.225 81.6209 117.586 81.2467C118.306 80.5122 118.473 79.2371 117.96 78.461C117.877 78.3224 117.309 77.865 116.338 77.865V77.865Z" fill="#383F48"/>
<path d="M122.908 83.4503C122.811 83.4503 122.714 83.4226 122.645 83.3533C122.478 83.2008 122.478 82.9652 122.617 82.7989C122.797 82.591 123.116 82.1613 123.213 81.5515C123.282 81.011 123.157 80.5675 123.046 80.3042C122.963 80.1102 123.046 79.8745 123.254 79.7914C123.448 79.7082 123.684 79.7914 123.767 79.9993C123.92 80.3735 124.1 80.9556 123.989 81.6763C123.878 82.5078 123.448 83.0761 123.199 83.3533C123.116 83.4364 123.019 83.478 122.908 83.478V83.4503Z" fill="#383F48"/>
<path d="M124.446 83.6444C124.335 83.6444 124.238 83.6028 124.155 83.5197C124.003 83.3672 124.017 83.1178 124.169 82.9653C124.335 82.8129 124.557 82.5357 124.668 82.1476C124.807 81.6764 124.71 81.2606 124.64 81.0666C124.571 80.8587 124.682 80.6369 124.89 80.5676C125.098 80.4983 125.319 80.6092 125.389 80.8171C125.486 81.1081 125.624 81.6902 125.43 82.3693C125.305 82.8128 125.056 83.2148 124.71 83.5474C124.64 83.6167 124.543 83.6583 124.446 83.6583V83.6444Z" fill="#383F48"/>
<path d="M111.626 78.1145C111.529 78.1145 111.432 78.0729 111.363 78.0036C111.211 77.8512 111.197 77.6017 111.349 77.4493C111.765 77.0058 112.292 76.1881 112.402 75.9386C112.583 75.5367 112.596 74.9961 112.402 74.414C112.333 74.1784 111.987 73.8597 111.89 73.8181C111.696 73.7349 111.599 73.4993 111.696 73.3053C111.779 73.1113 112.014 73.0142 112.208 73.0974C112.513 73.2221 113.012 73.7072 113.165 74.1923C113.4 74.9546 113.386 75.6891 113.123 76.2712C112.971 76.6038 112.375 77.5186 111.917 77.9898C111.834 78.0729 111.737 78.1145 111.626 78.1145Z" fill="#383F48"/>
</svg>
