<svg width="243" height="148" viewBox="0 0 243 148" fill="none" xmlns="http://www.w3.org/2000/svg">
<path d="M0 8C0 3.58173 3.58172 0 8 0H243V148H8C3.58172 148 0 144.418 0 140V8Z" fill="white"/>
<path d="M75.7249 113.449C75.7249 115.949 90.4494 117.324 108.686 116.024C126.023 114.787 145.135 115.499 148.61 114.212C154.173 112.162 130.223 111.799 108.749 111.462C90.4619 111.174 75.7249 110.049 75.7249 113.437V113.449Z" fill="#32383F"/>
<path d="M85.1371 60.5757L72 65.7881L90.8995 72.3129L95.6868 96.4372L98.0993 78.4752L126.323 93.3248L137.598 76.2128L112.649 68.388L104.799 73.7379L103.887 66.1631L85.1246 60.5632L85.1371 60.5757Z" fill="#D12E6A"/>
<path d="M85.1371 60.5757L100.337 54.9009L115.074 58.0133L115.536 66.1881L124.623 59.7757L145.535 64.4131L137.586 76.2128L112.636 68.388L104.787 73.7378L103.874 66.1631L85.1121 60.5632L85.1371 60.5757Z" fill="#DC552E"/>
<path d="M100.337 54.9009L115.199 48.6385L128.586 50.876L128.523 57.0258L135.573 52.051L151.998 54.7884L145.535 64.4131L123.998 59.8882L115.536 66.1881L115.074 58.0133L100.337 54.9009V54.9009Z" fill="#E87B35"/>
<path d="M115.349 48.8636L128.798 43.5262L138.886 45.0012V49.7511L144.71 45.6512L156.548 47.4136L151.485 54.9384L134.686 52.326L128.536 57.0259L128.373 51.201L115.349 48.8636V48.8636Z" fill="#ECAF3B"/>
<path d="M128.786 43.5262L142.585 38.1889H150.56L150.448 41.5013L155.535 37.9889L163.447 37.7389L156.535 47.4011L144.923 46.1137L138.885 49.7385L138.635 44.9887L128.798 43.5262H128.786Z" fill="#6AA744"/>
<path d="M142.585 38.1889L164.172 29.2141L169.41 28.8641L162.785 38.6639L155.523 37.9889L150.11 41.8138L150.235 38.3639L142.585 38.1889V38.1889Z" fill="#208C44"/>
<path d="M90.8994 72.3128L166.785 29.1641L156.535 37.2888L98.0992 78.4752L95.4118 94.9872L90.9119 72.3003L90.8994 72.3128Z" fill="white"/>
<path d="M90.8994 72.3128L166.785 29.1641L156.535 37.2888L92.0494 78.5127L90.8994 72.3128V72.3128Z" fill="#32383F"/>
<path d="M98.0993 78.4752L109.199 84.3751L95.6993 96.4372L98.1118 78.4752H98.0993Z" fill="#32383F"/>
<path d="M90.8994 72.813C90.7244 72.813 90.5619 72.7255 90.4619 72.563C90.3245 72.3255 90.4119 72.013 90.6494 71.8755L170.747 26.0768C170.985 25.9393 171.297 26.0268 171.435 26.2643C171.572 26.5018 171.485 26.8143 171.247 26.9518L91.1494 72.7505C91.0744 72.8005 90.9869 72.813 90.8994 72.813V72.813Z" fill="#32383F"/>
<path d="M98.0993 78.9753C97.9493 78.9753 97.7868 78.9003 97.6868 78.7628C97.5243 78.5378 97.5868 78.2253 97.8118 78.0629L169.122 27.8018C169.347 27.6393 169.66 27.7018 169.822 27.9268C169.985 28.1518 169.922 28.4643 169.697 28.6268L98.3868 78.8878C98.2993 78.9503 98.1993 78.9753 98.0993 78.9753Z" fill="#32383F"/>
<path d="M95.4119 97.1997C95.2744 97.1997 95.1369 97.1497 95.0369 97.0372C94.8494 96.8372 94.8744 96.5122 95.0744 96.3372L108.862 84.0251C109.062 83.8376 109.387 83.8626 109.562 84.0626C109.737 84.2626 109.724 84.5876 109.524 84.7626L95.7369 97.0747C95.6369 97.1622 95.5244 97.1997 95.3994 97.1997H95.4119Z" fill="#32383F"/>
<path d="M95.4118 97.1997C95.1743 97.1997 94.9618 97.0248 94.9243 96.7873L90.4745 72.6879L71.8375 66.2631C71.6375 66.2006 71.5 66.0131 71.5 65.8006C71.5 65.5881 71.625 65.4006 71.8125 65.3257L170.81 26.0393C171.01 25.9518 171.247 26.0143 171.385 26.1893C171.522 26.3643 171.535 26.6017 171.41 26.7767L126.436 93.6123C126.298 93.8248 126.011 93.8998 125.786 93.7748L98.4867 79.2503L95.8993 96.7623C95.8618 96.9998 95.6618 97.1872 95.4118 97.1872V97.1997ZM73.4374 65.7631L91.0619 71.8505C91.2369 71.913 91.3619 72.0505 91.3869 72.238L95.3493 93.6623L97.5993 78.4253C97.6243 78.2628 97.7243 78.1253 97.8618 78.0503C98.0117 77.9753 98.1742 77.9753 98.3242 78.0503L125.848 92.6874L169.672 27.5642L73.4374 65.7631Z" fill="#32383F"/>
</svg>
