<svg width="331" height="194" viewBox="0 0 331 194" fill="none" xmlns="http://www.w3.org/2000/svg">
<rect y="0.000999451" width="331" height="194" rx="8" fill="#F8F8F8"/>
<rect x="213" y="61.001" width="91" height="98" rx="2" fill="#DDDFE1"/>
<rect x="219" y="133" width="79.4872" height="15.3846" rx="2" fill="#BEC0C4"/>
<rect x="219" y="76.001" width="40" height="10" fill="#BEC0C4"/>
<rect x="219" y="89.001" width="50" height="3" fill="#BEC0C4"/>
<rect x="219.309" y="102" width="79.4872" height="4" rx="2" fill="#BEC0C4"/>
<rect x="219" y="102" width="65" height="4" rx="2" fill="#9EA2A8"/>
<path d="M27 161.001H205V173.001C205 174.106 204.105 175.001 203 175.001H29C27.8954 175.001 27 174.106 27 173.001V161.001Z" fill="#DDDFE1" fill-opacity="0.6"/>
<rect x="25" y="59" width="182" height="105.41" rx="4" fill="#EDEBFE" stroke="#7A01CC" stroke-width="4"/>
<path d="M99.8815 112.214L83.0812 83.1963C84.689 81.7993 86.7517 81.0238 88.8916 81.0238H103.678L121.888 112.481H113.534L106.662 98.7385L106.641 98.6959L106.619 98.7385L99.8815 112.214Z" fill="#F09221" stroke="#6C2BD9" stroke-width="0.047619"/>
<path d="M80.0238 89.8851C80.0238 87.5374 80.9558 85.285 82.615 83.6257C82.7848 83.4593 82.9611 83.2963 83.1407 83.1428L99.9169 112.12L99.7343 112.492H80.0238V89.8851Z" fill="#F1BF1A" stroke="#6C2BD9" stroke-width="0.047619"/>
<path d="M142.125 134.28H142.173L142.152 134.237L128.839 107.612L128.812 107.558L128.786 107.612L119.937 125.308L106.652 98.7366L106.625 98.6833L106.598 98.7366L88.8483 134.237L88.8267 134.28H88.875H142.125ZM82.6215 83.6215C84.2799 81.963 86.531 81.0298 88.875 81.0298H142.125C144.469 81.0298 146.72 81.963 148.378 83.6215C150.037 85.2799 150.97 87.531 150.97 89.875V134.25C150.97 136.594 150.037 138.845 148.378 140.503C146.72 142.162 144.469 143.095 142.125 143.095H88.875C86.531 143.095 84.2799 142.162 82.6215 140.503C80.963 138.845 80.0298 136.594 80.0298 134.25V89.875C80.0298 87.531 80.963 85.2799 82.6215 83.6215Z" stroke="#6C2BD9" stroke-width="0.0596932"/>
<path d="M128.856 107.613L126.424 112.481H121.921L103.707 81.0238H124.676L142.889 112.481H131.331L128.899 107.613L128.877 107.57L128.856 107.613Z" fill="#E86724" stroke="#6C2BD9" stroke-width="0.047619"/>
<path d="M142.681 112.481L124.467 81.0238H142.122C144.47 81.0238 146.718 81.9558 148.381 83.6151C150.041 85.2744 150.973 87.5268 150.973 89.8746V112.481H142.681Z" fill="#DE3282" stroke="#6C2BD9" stroke-width="0.047619"/>
<path d="M91.4758 128.978H80.0238V112.53H99.7L91.4758 128.978ZM150.976 112.53V128.978H139.524L131.3 112.53H150.976ZM126.324 112.53L119.937 125.306L113.551 112.53H126.324Z" fill="#7DB941" stroke="#6C2BD9" stroke-width="0.047619"/>
<path d="M142.147 134.253L139.36 128.684H150.976V134.264C150.976 136.611 150.044 138.86 148.385 140.52C146.722 142.182 144.473 143.115 142.125 143.115H88.8746C86.5268 143.115 84.278 142.182 82.6151 140.52C80.9558 138.86 80.0238 136.611 80.0238 134.264V128.684H91.6361L88.8533 134.253L88.836 134.288H88.8746H142.125H142.164L142.147 134.253Z" fill="#19A24A" stroke="#6C2BD9" stroke-width="0.047619"/>
<rect x="110" y="38.002" width="112" height="4" fill="#BEC0C4"/>
<rect x="140" y="45.002" width="51" height="4" fill="#BEC0C4"/>
<path d="M127.521 18V26H126.061L122.58 20.9648H122.521V26H120.83V18H122.314L125.768 23.0312H125.838V18H127.521ZM131.599 26.1172C130.992 26.1172 130.467 25.9883 130.024 25.7305C129.584 25.4701 129.244 25.1081 129.005 24.6445C128.765 24.1784 128.646 23.638 128.646 23.0234C128.646 22.4036 128.765 21.862 129.005 21.3984C129.244 20.9323 129.584 20.5703 130.024 20.3125C130.467 20.0521 130.992 19.9219 131.599 19.9219C132.205 19.9219 132.729 20.0521 133.169 20.3125C133.612 20.5703 133.953 20.9323 134.192 21.3984C134.432 21.862 134.552 22.4036 134.552 23.0234C134.552 23.638 134.432 24.1784 134.192 24.6445C133.953 25.1081 133.612 25.4701 133.169 25.7305C132.729 25.9883 132.205 26.1172 131.599 26.1172ZM131.606 24.8281C131.882 24.8281 132.113 24.75 132.298 24.5938C132.483 24.4349 132.622 24.2187 132.716 23.9453C132.812 23.6719 132.86 23.3607 132.86 23.0117C132.86 22.6628 132.812 22.3516 132.716 22.0781C132.622 21.8047 132.483 21.5885 132.298 21.4297C132.113 21.2708 131.882 21.1914 131.606 21.1914C131.328 21.1914 131.093 21.2708 130.903 21.4297C130.716 21.5885 130.574 21.8047 130.478 22.0781C130.384 22.3516 130.337 22.6628 130.337 23.0117C130.337 23.3607 130.384 23.6719 130.478 23.9453C130.574 24.2187 130.716 24.4349 130.903 24.5938C131.093 24.75 131.328 24.8281 131.606 24.8281ZM135.634 26V20H137.22V21.0586H137.29C137.415 20.707 137.623 20.4297 137.915 20.2266C138.207 20.0234 138.556 19.9219 138.962 19.9219C139.373 19.9219 139.724 20.0247 140.013 20.2305C140.302 20.4336 140.494 20.7096 140.591 21.0586H140.653C140.776 20.7148 140.997 20.4401 141.317 20.2344C141.64 20.026 142.022 19.9219 142.462 19.9219C143.022 19.9219 143.476 20.1003 143.825 20.457C144.177 20.8112 144.353 21.3138 144.353 21.9648V26H142.692V22.293C142.692 21.9596 142.604 21.7096 142.427 21.543C142.25 21.3763 142.028 21.293 141.763 21.293C141.461 21.293 141.225 21.3893 141.056 21.582C140.886 21.7721 140.802 22.0234 140.802 22.3359V26H139.188V22.2578C139.188 21.9635 139.104 21.7292 138.935 21.5547C138.768 21.3802 138.548 21.293 138.274 21.293C138.09 21.293 137.923 21.3398 137.774 21.4336C137.629 21.5247 137.513 21.6536 137.427 21.8203C137.341 21.9844 137.298 22.1771 137.298 22.3984V26H135.634ZM148.401 26.1172C147.784 26.1172 147.253 25.9922 146.808 25.7422C146.365 25.4896 146.024 25.1328 145.784 24.6719C145.545 24.2083 145.425 23.6602 145.425 23.0273C145.425 22.4102 145.545 21.8685 145.784 21.4023C146.024 20.9362 146.361 20.5729 146.796 20.3125C147.233 20.0521 147.746 19.9219 148.335 19.9219C148.731 19.9219 149.099 19.9857 149.44 20.1133C149.784 20.2383 150.084 20.4271 150.339 20.6797C150.597 20.9323 150.797 21.25 150.94 21.6328C151.084 22.013 151.155 22.4583 151.155 22.9687V23.4258H146.089V22.3945H149.589C149.589 22.1549 149.537 21.9427 149.433 21.7578C149.328 21.5729 149.184 21.4284 148.999 21.3242C148.817 21.2174 148.604 21.1641 148.362 21.1641C148.11 21.1641 147.886 21.2227 147.69 21.3398C147.498 21.4544 147.347 21.6094 147.237 21.8047C147.128 21.9974 147.072 22.2122 147.069 22.4492V23.4297C147.069 23.7266 147.124 23.9831 147.233 24.1992C147.345 24.4154 147.503 24.582 147.706 24.6992C147.909 24.8164 148.15 24.875 148.429 24.875C148.614 24.875 148.783 24.849 148.937 24.7969C149.09 24.7448 149.222 24.6667 149.331 24.5625C149.44 24.4583 149.524 24.3307 149.581 24.1797L151.12 24.2812C151.042 24.651 150.882 24.974 150.64 25.25C150.4 25.5234 150.09 25.737 149.71 25.8906C149.332 26.0417 148.896 26.1172 148.401 26.1172ZM156.998 26.0977C156.542 26.0977 156.13 25.9805 155.76 25.7461C155.393 25.5091 155.101 25.1615 154.885 24.7031C154.671 24.2422 154.564 23.6771 154.564 23.0078C154.564 22.3203 154.675 21.7487 154.896 21.293C155.118 20.8346 155.412 20.4922 155.779 20.2656C156.149 20.0365 156.554 19.9219 156.994 19.9219C157.33 19.9219 157.61 19.9792 157.834 20.0938C158.061 20.2057 158.243 20.3464 158.381 20.5156C158.521 20.6823 158.628 20.8464 158.701 21.0078H158.752V18H160.412V26H158.771V25.0391H158.701C158.623 25.2057 158.512 25.3711 158.369 25.5352C158.229 25.6966 158.045 25.8307 157.818 25.9375C157.594 26.0443 157.321 26.0977 156.998 26.0977ZM157.525 24.7734C157.794 24.7734 158.02 24.7005 158.205 24.5547C158.393 24.4062 158.536 24.1992 158.635 23.9336C158.736 23.668 158.787 23.3568 158.787 23C158.787 22.6432 158.738 22.3333 158.639 22.0703C158.54 21.8073 158.396 21.6042 158.209 21.4609C158.021 21.3177 157.794 21.2461 157.525 21.2461C157.252 21.2461 157.021 21.3203 156.834 21.4687C156.646 21.6172 156.505 21.8229 156.408 22.0859C156.312 22.349 156.264 22.6536 156.264 23C156.264 23.349 156.312 23.6576 156.408 23.9258C156.507 24.1914 156.649 24.3997 156.834 24.5508C157.021 24.6992 157.252 24.7734 157.525 24.7734ZM164.491 26.1172C163.884 26.1172 163.36 25.9883 162.917 25.7305C162.477 25.4701 162.137 25.1081 161.897 24.6445C161.658 24.1784 161.538 23.638 161.538 23.0234C161.538 22.4036 161.658 21.862 161.897 21.3984C162.137 20.9323 162.477 20.5703 162.917 20.3125C163.36 20.0521 163.884 19.9219 164.491 19.9219C165.098 19.9219 165.621 20.0521 166.062 20.3125C166.504 20.5703 166.845 20.9323 167.085 21.3984C167.325 21.862 167.444 22.4036 167.444 23.0234C167.444 23.638 167.325 24.1784 167.085 24.6445C166.845 25.1081 166.504 25.4701 166.062 25.7305C165.621 25.9883 165.098 26.1172 164.491 26.1172ZM164.499 24.8281C164.775 24.8281 165.006 24.75 165.19 24.5938C165.375 24.4349 165.515 24.2187 165.608 23.9453C165.705 23.6719 165.753 23.3607 165.753 23.0117C165.753 22.6628 165.705 22.3516 165.608 22.0781C165.515 21.8047 165.375 21.5885 165.19 21.4297C165.006 21.2708 164.775 21.1914 164.499 21.1914C164.22 21.1914 163.986 21.2708 163.796 21.4297C163.608 21.5885 163.466 21.8047 163.37 22.0781C163.276 22.3516 163.229 22.6628 163.229 23.0117C163.229 23.3607 163.276 23.6719 163.37 23.9453C163.466 24.2187 163.608 24.4349 163.796 24.5938C163.986 24.75 164.22 24.8281 164.499 24.8281ZM171.072 28.25V20H172.713V21.0078H172.787C172.86 20.8464 172.965 20.6823 173.104 20.5156C173.244 20.3464 173.426 20.2057 173.65 20.0938C173.877 19.9792 174.158 19.9219 174.494 19.9219C174.932 19.9219 175.335 20.0365 175.705 20.2656C176.075 20.4922 176.37 20.8346 176.592 21.293C176.813 21.7487 176.924 22.3203 176.924 23.0078C176.924 23.6771 176.816 24.2422 176.6 24.7031C176.386 25.1615 176.094 25.5091 175.725 25.7461C175.357 25.9805 174.946 26.0977 174.49 26.0977C174.167 26.0977 173.893 26.0443 173.666 25.9375C173.442 25.8307 173.258 25.6966 173.115 25.5352C172.972 25.3711 172.863 25.2057 172.787 25.0391H172.736V28.25H171.072ZM172.701 23C172.701 23.3568 172.751 23.668 172.85 23.9336C172.949 24.1992 173.092 24.4062 173.279 24.5547C173.467 24.7005 173.695 24.7734 173.963 24.7734C174.234 24.7734 174.463 24.6992 174.65 24.5508C174.838 24.3997 174.98 24.1914 175.076 23.9258C175.175 23.6576 175.225 23.349 175.225 23C175.225 22.6536 175.176 22.349 175.08 22.0859C174.984 21.8229 174.842 21.6172 174.654 21.4687C174.467 21.3203 174.236 21.2461 173.963 21.2461C173.692 21.2461 173.463 21.3177 173.275 21.4609C173.09 21.6042 172.949 21.8073 172.85 22.0703C172.751 22.3333 172.701 22.6432 172.701 23ZM178.033 26V20H179.646V21.0469H179.709C179.818 20.6745 180.002 20.3932 180.26 20.2031C180.518 20.0104 180.814 19.9141 181.15 19.9141C181.234 19.9141 181.324 19.9193 181.42 19.9297C181.516 19.9401 181.601 19.9544 181.674 19.9727V21.4492C181.596 21.4258 181.488 21.4049 181.35 21.3867C181.212 21.3685 181.085 21.3594 180.971 21.3594C180.726 21.3594 180.507 21.4128 180.314 21.5195C180.124 21.6237 179.973 21.7695 179.861 21.957C179.752 22.1445 179.697 22.3607 179.697 22.6055V26H178.033ZM184.966 26.1172C184.359 26.1172 183.834 25.9883 183.392 25.7305C182.951 25.4701 182.612 25.1081 182.372 24.6445C182.132 24.1784 182.013 23.638 182.013 23.0234C182.013 22.4036 182.132 21.862 182.372 21.3984C182.612 20.9323 182.951 20.5703 183.392 20.3125C183.834 20.0521 184.359 19.9219 184.966 19.9219C185.573 19.9219 186.096 20.0521 186.536 20.3125C186.979 20.5703 187.32 20.9323 187.56 21.3984C187.799 21.862 187.919 22.4036 187.919 23.0234C187.919 23.638 187.799 24.1784 187.56 24.6445C187.32 25.1081 186.979 25.4701 186.536 25.7305C186.096 25.9883 185.573 26.1172 184.966 26.1172ZM184.974 24.8281C185.25 24.8281 185.48 24.75 185.665 24.5938C185.85 24.4349 185.989 24.2187 186.083 23.9453C186.179 23.6719 186.228 23.3607 186.228 23.0117C186.228 22.6628 186.179 22.3516 186.083 22.0781C185.989 21.8047 185.85 21.5885 185.665 21.4297C185.48 21.2708 185.25 21.1914 184.974 21.1914C184.695 21.1914 184.461 21.2708 184.271 21.4297C184.083 21.5885 183.941 21.8047 183.845 22.0781C183.751 22.3516 183.704 22.6628 183.704 23.0117C183.704 23.3607 183.751 23.6719 183.845 23.9453C183.941 24.2187 184.083 24.4349 184.271 24.5938C184.461 24.75 184.695 24.8281 184.974 24.8281ZM189.001 20H190.665V26.2969C190.665 26.7604 190.574 27.1354 190.392 27.4219C190.209 27.7083 189.948 27.918 189.606 28.0508C189.268 28.1836 188.863 28.25 188.392 28.25C188.334 28.25 188.28 28.2487 188.228 28.2461C188.173 28.2461 188.116 28.2448 188.056 28.2422V26.9414C188.1 26.944 188.139 26.9453 188.173 26.9453C188.204 26.9479 188.238 26.9492 188.274 26.9492C188.543 26.9492 188.73 26.8919 188.837 26.7773C188.946 26.6654 189.001 26.4961 189.001 26.2695V20ZM189.829 19.2266C189.584 19.2266 189.373 19.1445 189.196 18.9805C189.019 18.8138 188.931 18.6146 188.931 18.3828C188.931 18.1536 189.019 17.957 189.196 17.793C189.373 17.6263 189.584 17.543 189.829 17.543C190.079 17.543 190.291 17.6263 190.466 17.793C190.643 17.957 190.731 18.1536 190.731 18.3828C190.731 18.6146 190.643 18.8138 190.466 18.9805C190.291 19.1445 190.079 19.2266 189.829 19.2266ZM194.732 26.1172C194.115 26.1172 193.584 25.9922 193.139 25.7422C192.696 25.4896 192.355 25.1328 192.115 24.6719C191.876 24.2083 191.756 23.6602 191.756 23.0273C191.756 22.4102 191.876 21.8685 192.115 21.4023C192.355 20.9362 192.692 20.5729 193.127 20.3125C193.564 20.0521 194.077 19.9219 194.666 19.9219C195.062 19.9219 195.43 19.9857 195.771 20.1133C196.115 20.2383 196.415 20.4271 196.67 20.6797C196.928 20.9323 197.128 21.25 197.271 21.6328C197.415 22.013 197.486 22.4583 197.486 22.9687V23.4258H192.42V22.3945H195.92C195.92 22.1549 195.868 21.9427 195.764 21.7578C195.66 21.5729 195.515 21.4284 195.33 21.3242C195.148 21.2174 194.936 21.1641 194.693 21.1641C194.441 21.1641 194.217 21.2227 194.021 21.3398C193.829 21.4544 193.678 21.6094 193.568 21.8047C193.459 21.9974 193.403 22.2122 193.4 22.4492V23.4297C193.4 23.7266 193.455 23.9831 193.564 24.1992C193.676 24.4154 193.834 24.582 194.037 24.6992C194.24 24.8164 194.481 24.875 194.76 24.875C194.945 24.875 195.114 24.849 195.268 24.7969C195.421 24.7448 195.553 24.6667 195.662 24.5625C195.771 24.4583 195.855 24.3307 195.912 24.1797L197.451 24.2812C197.373 24.651 197.213 24.974 196.971 25.25C196.731 25.5234 196.421 25.737 196.041 25.8906C195.663 26.0417 195.227 26.1172 194.732 26.1172ZM201.764 20V21.25H198.15V20H201.764ZM198.971 18.5625H200.635V24.1562C200.635 24.3099 200.658 24.4297 200.705 24.5156C200.752 24.599 200.817 24.6576 200.9 24.6914C200.986 24.7253 201.085 24.7422 201.197 24.7422C201.275 24.7422 201.354 24.7357 201.432 24.7227C201.51 24.707 201.57 24.6953 201.611 24.6875L201.873 25.9258C201.79 25.9518 201.673 25.9818 201.521 26.0156C201.37 26.0521 201.187 26.0742 200.971 26.082C200.57 26.0977 200.218 26.0443 199.916 25.9219C199.617 25.7995 199.383 25.6094 199.217 25.3516C199.05 25.0937 198.968 24.7682 198.971 24.375V18.5625ZM205.494 26.1172C204.887 26.1172 204.363 25.9883 203.92 25.7305C203.48 25.4701 203.14 25.1081 202.9 24.6445C202.661 24.1784 202.541 23.638 202.541 23.0234C202.541 22.4036 202.661 21.862 202.9 21.3984C203.14 20.9323 203.48 20.5703 203.92 20.3125C204.363 20.0521 204.887 19.9219 205.494 19.9219C206.101 19.9219 206.624 20.0521 207.064 20.3125C207.507 20.5703 207.848 20.9323 208.088 21.3984C208.327 21.862 208.447 22.4036 208.447 23.0234C208.447 23.638 208.327 24.1784 208.088 24.6445C207.848 25.1081 207.507 25.4701 207.064 25.7305C206.624 25.9883 206.101 26.1172 205.494 26.1172ZM205.502 24.8281C205.778 24.8281 206.008 24.75 206.193 24.5938C206.378 24.4349 206.518 24.2187 206.611 23.9453C206.708 23.6719 206.756 23.3607 206.756 23.0117C206.756 22.6628 206.708 22.3516 206.611 22.0781C206.518 21.8047 206.378 21.5885 206.193 21.4297C206.008 21.2708 205.778 21.1914 205.502 21.1914C205.223 21.1914 204.989 21.2708 204.799 21.4297C204.611 21.5885 204.469 21.8047 204.373 22.0781C204.279 22.3516 204.232 22.6628 204.232 23.0117C204.232 23.3607 204.279 23.6719 204.373 23.9453C204.469 24.2187 204.611 24.4349 204.799 24.5938C204.989 24.75 205.223 24.8281 205.502 24.8281Z" fill="#BEC0C4"/>
</svg>
