<svg width="100" height="33" viewBox="0 0 100 33" fill="none" xmlns="http://www.w3.org/2000/svg">
<g clip-path="url(#clip0_2854_74452)">
<path d="M80.2757 19.2194C79.5362 20.7948 79.5523 22.5147 80.0988 24.0257C80.5489 25.2474 81.0955 25.6493 81.4973 25.8261C81.7706 25.9547 82.0599 26.019 82.3493 26.019C82.8958 26.019 83.4263 25.81 83.796 25.4082C84.4551 24.733 84.648 23.5435 83.9085 22.4504C82.6869 20.6179 82.0117 18.7372 82.9762 16.6636C83.0405 16.5189 83.1048 16.3903 83.1852 16.2617C81.9474 16.8404 80.9026 17.8692 80.2757 19.2194Z" fill="#19A24A"/>
<path d="M82.2046 23.9128C82.7029 25.7614 83.9246 27.2081 85.4678 28.0922C86.7216 28.8156 87.461 28.7513 87.9111 28.6227C88.2326 28.5423 88.5219 28.3816 88.7631 28.1887C89.2292 27.8029 89.5186 27.2403 89.5507 26.6455C89.615 25.6007 88.9399 24.4754 87.5575 24.0575C85.2267 23.3824 83.3459 22.2572 82.6869 19.8299C82.6387 19.6691 82.6065 19.5084 82.5744 19.3477C81.9474 20.7301 81.7867 22.3375 82.2046 23.9128Z" fill="#7DB941"/>
<path d="M87.1712 26.5023C88.8912 27.7078 90.9488 28.0615 92.8616 27.7078C94.4209 27.4346 94.9996 26.8559 95.305 26.4219C95.514 26.1165 95.6426 25.795 95.7069 25.4574C95.8194 24.8144 95.6747 24.1393 95.2889 23.5928C94.6138 22.6765 93.2314 22.1943 91.7846 22.8212C89.3413 23.8982 86.9623 24.3 84.6957 22.7087C84.5511 22.5961 84.4064 22.4997 84.2617 22.3711C84.6957 24.0107 85.6924 25.4735 87.1712 26.5023Z" fill="#F1BF1A"/>
<path d="M93.1838 25.1829C95.4825 24.9739 97.4597 23.8166 98.8421 22.177C99.9673 20.8428 100.048 19.9426 99.9834 19.3639C99.9512 18.9621 99.8226 18.5923 99.6297 18.2548C99.2761 17.6279 98.6653 17.1617 97.958 16.9849C96.7363 16.6795 95.2414 17.2582 94.4537 18.8174C93.1517 21.4375 91.4317 23.4629 88.3936 23.7362C88.1846 23.7523 87.9917 23.7684 87.7988 23.7684C89.3259 24.8132 91.2066 25.3597 93.1838 25.1829Z" fill="#F09221"/>
<path d="M97.3139 19.8322C99.1143 18.0319 99.9501 15.6528 99.9501 13.3059C99.9501 11.3931 99.3875 10.5733 98.9375 10.1232C98.616 9.80168 98.2623 9.57663 97.8605 9.43196C97.121 9.15869 96.2691 9.19084 95.5618 9.54448C94.324 10.1553 93.456 11.6985 93.9222 13.5631C94.6777 16.6977 94.6616 19.6233 92.2986 21.9862C92.1379 22.147 91.9772 22.2916 91.8164 22.4363C93.8097 22.2434 95.7708 21.3754 97.3139 19.8322Z" fill="#E86724"/>
<path d="M97.507 11.2792C97.7963 7.98394 96.6551 4.91369 94.6779 2.5668C93.0704 0.653928 91.8327 0.316362 91.0129 0.252064C90.4342 0.20384 89.8876 0.284213 89.3733 0.461033C88.3927 0.814674 87.589 1.53803 87.171 2.50251C86.4477 4.14211 86.8817 6.40863 88.891 7.88749C92.2667 10.363 94.694 13.3046 94.3082 17.6448C94.276 17.9341 94.2439 18.2074 94.1956 18.4967C96.0281 16.5999 97.2498 14.1084 97.507 11.2792Z" fill="#DE3282"/>
<path d="M6.81562 19.4922C8.34271 19.4922 11.3647 20.1191 11.3647 22.2731V23.5751H9.16251V22.8679C9.16251 21.9677 7.73188 21.5658 6.81562 21.5658C4.34014 21.5658 2.49156 23.4144 2.49156 26.0988C2.49156 28.9762 4.59733 30.5997 6.94422 30.5997C9.32326 30.5997 10.8664 28.8476 10.8664 28.8476L11.9113 30.5676C11.9113 30.5676 10.1109 32.7376 6.75133 32.7376C2.76483 32.7376 0 29.9085 0 26.0988C0 22.4017 2.73268 19.4922 6.81562 19.4922Z" fill="#3F4752"/>
<path d="M20.8811 24.5874H21.4276V24.4588C21.4276 22.2244 20.6078 21.4368 18.6307 21.4368C18.0359 21.4368 16.557 21.5814 16.557 22.4173V23.1407H14.2745V21.8869C14.2745 19.8132 17.4251 19.5078 18.6628 19.5078C22.7618 19.5078 23.871 21.6618 23.871 24.4588V29.8438C23.871 30.2135 23.871 30.3903 23.871 30.3903V32.4639C23.871 32.4639 22.151 32.4639 21.6366 32.4639C21.6366 32.0299 21.6527 31.1297 21.6527 31.1297H21.6045C21.6045 31.1297 20.6078 32.7533 17.5697 32.7533C15.3997 32.7533 13.2618 31.4191 13.2618 28.8954C13.2457 24.8285 18.7432 24.5874 20.8811 24.5874ZM18.0681 30.8082C20.1256 30.8082 21.4437 28.6543 21.4437 26.7735V26.3556H20.8168C18.9843 26.3556 15.689 26.452 15.689 28.7829C15.689 29.8116 16.4767 30.8082 18.0681 30.8082Z" fill="#3F4752"/>
<path d="M40.3792 24.5878H40.9257V24.4592C40.9257 22.2249 40.1059 21.4211 38.1287 21.4211C37.534 21.4211 36.0551 21.5658 36.0551 22.4017V23.125H33.7725V21.8712C33.7725 19.7976 36.9231 19.4922 38.1609 19.4922C42.2599 19.4922 43.369 21.6462 43.369 24.4432V29.8281C43.369 30.1979 43.369 30.3747 43.369 30.3747V32.4483C43.369 32.4483 41.6491 32.4483 41.1347 32.4483C41.1347 32.0304 41.1507 31.1302 41.1507 31.1302H41.1025C41.1025 31.1302 40.1059 32.7537 37.0678 32.7537C34.8816 32.7537 32.7598 31.4195 32.7598 28.8958C32.7437 24.829 38.2573 24.5878 40.3792 24.5878ZM37.5822 30.8087C39.6397 30.8087 40.9578 28.6547 40.9578 26.774V26.34H40.3309C38.4984 26.34 35.2031 26.4364 35.2031 28.7672C35.2031 29.8121 35.9747 30.8087 37.5822 30.8087Z" fill="#3F4752"/>
<path d="M25.752 16.3086H28.1792V19.7807H31.2013V21.7257H28.1792V27.5287C28.1792 30.0524 29.9314 30.3899 30.8637 30.3899C31.2173 30.3899 31.4424 30.3417 31.4424 30.3417V32.4957C31.4424 32.4957 31.1209 32.5439 30.5904 32.5439C28.983 32.5439 25.752 32.0456 25.752 27.818V21.7257V16.3086Z" fill="#3F4752"/>
<path d="M45.25 19.797C45.3304 19.797 47.613 19.797 47.613 19.797C47.613 20.1667 47.613 21.8385 47.613 21.8385C48.2077 19.9899 49.6705 19.6523 51.6156 19.6523C51.9371 19.6523 52.2746 19.7006 52.2746 19.7006V22.0957C52.2746 22.0957 51.9531 22.0153 51.5513 22.0153C50.0081 22.0153 48.5775 23.1245 47.9988 24.9891C47.7737 25.7125 47.6933 26.484 47.6933 27.2717V32.4477C47.6933 32.4477 45.2821 32.4477 45.25 32.4477C45.25 32.3673 45.25 19.8935 45.25 19.797Z" fill="#3F4752"/>
<path d="M54.3163 28.9114C54.3163 28.9114 55.8113 30.7922 58.1421 30.7922C59.3155 30.7922 60.3443 30.2617 60.3443 29.1686C60.3443 26.886 53.4322 27.1432 53.4322 23.0603C53.4322 20.633 55.5541 19.5078 58.1421 19.5078C59.6692 19.5078 62.3054 20.0383 62.3054 21.9672V23.1728H60.1192V22.5459C60.1192 21.7904 58.994 21.4689 58.2224 21.4689C56.7918 21.4689 55.8756 21.9672 55.8756 22.9638C55.8756 25.375 62.7876 24.8446 62.7876 29.0722C62.7876 31.3226 60.7944 32.7693 58.126 32.7693C54.7503 32.7693 53.0625 30.535 53.0625 30.535L54.3163 28.9114Z" fill="#3F4752"/>
<path d="M70.471 19.4922C74.0235 19.4922 75.9364 22.1445 75.9364 25.4237C75.9364 25.7452 75.856 26.4203 75.856 26.4203H66.6131C66.7578 29.1209 68.7189 30.6479 70.9693 30.6479C73.1394 30.6479 74.6665 29.1691 74.6665 29.1691L75.7274 30.8891C75.7274 30.8891 73.8467 32.7376 70.8407 32.7376C66.8382 32.7376 64.1055 29.8603 64.1055 26.0988C64.1215 22.0963 66.8703 19.4922 70.471 19.4922ZM73.4287 24.6521C73.3484 22.5464 72.0302 21.4211 70.4549 21.4211C68.6064 21.4211 67.0953 22.5464 66.7256 24.6521H73.4287Z" fill="#3F4752"/>
</g>
<defs>
<clipPath id="clip0_2854_74452">
<rect width="100" height="32.535" fill="white" transform="translate(0 0.234375)"/>
</clipPath>
</defs>
</svg>
