<svg width="80" height="80" viewBox="0 0 80 80" fill="none" xmlns="http://www.w3.org/2000/svg">
<path d="M34.3062 43.8689C33.8625 42.8064 33.2312 41.8627 32.4187 41.0502C31.6062 40.2377 30.6625 39.6002 29.6 39.1564C28 38.4877 26.25 38.3252 24.5625 38.6564C22.875 38.9877 21.325 39.8252 20.1063 41.0502C16.6813 44.4752 14.6562 58.8002 14.6562 58.8002H14.675V58.8189C14.675 58.8189 29 56.7939 32.425 53.3689C33.65 52.1439 34.4812 50.6002 34.8187 48.9064C35.1562 47.2127 34.9875 45.4689 34.3187 43.8689H34.3062Z" fill="#F1BF1A"/>
<path d="M14.6562 25.9998L17.1813 23.6123L26.4438 27.6686L25.1625 30.4936L14.6562 25.9998Z" fill="#E86724"/>
<path d="M49.8875 54.9687L46.8125 57.2624L42.9812 48.4374L46.475 46.7124L49.8875 54.9687Z" fill="#E86724"/>
<path d="M60.0749 37.9502C61.3499 46.1439 53.0187 49.3439 45.9624 55.2627L47.4812 58.8127L59.2312 47.0627C60.5937 45.7002 61.2062 43.7252 60.8249 41.8127L60.0687 37.9564H60.0749V37.9502Z" fill="#3F4752"/>
<path d="M32.5688 25.3002L35.5251 20.2939L38.9751 16.9189L43.0063 23.3877L54.7376 33.1377L47.9501 39.3002C47.9501 39.3002 41.1188 35.1939 37.6876 31.5939C35.4688 29.2689 32.5688 25.3002 32.5688 25.3002Z" fill="#19A24A"/>
<path d="M37.2998 17.8251L40.7561 14.2813L44.5748 11.1313L48.6061 17.6001L60.3373 27.3501L53.5498 33.5126C53.5498 33.5126 46.7186 29.4063 43.2873 25.8063C41.0686 23.4813 37.2998 17.8313 37.2998 17.8313V17.8251Z" fill="#7DB941"/>
<path d="M42.9812 11.9938L47.1374 8.9126L51.4187 6.56885L54.8562 11.3438L66.5875 21.0938L59.7999 27.2563C59.7999 27.2563 51.8937 23.7751 48.4625 20.1751C46.2437 17.8501 42.9812 11.9938 42.9812 11.9938Z" fill="#F1BF1A"/>
<path d="M50.4563 6.44375L53.025 5.39375L57.625 3.46875L61.0625 8.24375L68.6875 14.4L65.1875 20.8938C65.1875 20.8938 59.9625 17.5375 56.3 13.9937C53.6125 11.3938 50.4563 6.44375 50.4563 6.44375Z" fill="#F09221"/>
<path d="M56.9438 3.6624L59.0813 2.7874L64.4563 2.24365L67.1251 5.6374L70.5688 8.41865L69.6063 15.6937C69.6063 15.6937 65.8563 13.6687 62.4188 10.7999C59.9501 8.7374 56.9438 3.6624 56.9438 3.6624Z" fill="#DE3282"/>
<path d="M38.6687 42.1252C38.6687 42.1252 49.0687 36.5877 55.4437 30.4939C66.4875 19.9502 69.8562 8.68142 69.9937 2.85642C70 2.56892 70.7125 3.35642 70.5687 2.90642C71.4625 5.68142 74.0125 17.9127 58.3562 33.5689C52.1312 39.8189 41.275 44.3127 41.275 44.3127L38.6687 42.1252Z" fill="#3F4752"/>
<path d="M52.375 13.6689C48.275 13.6689 44.95 16.9939 44.95 21.0939C44.95 25.1939 48.275 28.5189 52.375 28.5189C56.475 28.5189 59.8 25.1939 59.8 21.0939C59.8 16.9939 56.475 13.6689 52.375 13.6689Z" fill="white"/>
<path d="M47.0124 26.5563C48.1687 27.7126 49.6062 28.4126 51.0999 28.6751C50.1937 28.3438 49.3374 27.8188 48.6062 27.0876C45.9249 24.4063 45.9249 20.0626 48.6062 17.3813C51.2874 14.7001 55.6312 14.7001 58.3124 17.3813C59.0937 18.1626 59.6437 19.0938 59.9687 20.0751C59.7437 18.4938 59.0312 16.9688 57.8187 15.7501C54.8374 12.7688 49.9999 12.7688 47.0187 15.7501C44.0374 18.7313 44.0374 23.5688 47.0187 26.5501H47.0124V26.5563Z" fill="#3F4752"/>
<path d="M34.3062 43.8689C33.8624 42.8064 33.2312 41.8627 32.4187 41.0502C31.6062 40.2377 30.6625 39.6002 29.6 39.1564C28 38.4877 26.2499 38.3252 24.5625 38.6564C22.875 38.9877 21.325 39.8252 20.1062 41.0502C20.1062 41.0502 26.4937 39.4689 30.2937 42.5627C34.0937 45.6564 32.425 53.3689 32.425 53.3689C33.65 52.1439 34.4812 50.6002 34.8187 48.9064C35.1562 47.2127 34.9874 45.4689 34.3187 43.8689H34.3062Z" fill="#3F4752"/>
<path d="M31.6936 26.9125L32.3874 25.5L38.7624 32.7312L46.5624 38.9187L44.5811 39.9562L36.4936 32.7312L31.6936 26.9125Z" fill="#3F4752"/>
<path d="M52.375 74.0748C52.3937 76.1623 43.3625 76.7248 32.0875 77.3873C20.8125 78.0498 8.875 77.8873 8.75 75.806C8.625 73.7248 15.35 71.8873 31.4625 72.0685C42.7562 72.1935 52.3438 71.4935 52.3687 74.0748H52.375Z" fill="#3F4752"/>
<path d="M32.3876 43.2876C32.1688 42.7626 31.8563 42.3001 31.4626 41.9001C31.0626 41.5001 30.6001 41.1876 30.0751 40.9688C29.2876 40.6376 28.4313 40.5563 27.6001 40.7251C26.7688 40.8876 26.0063 41.3001 25.4063 41.9001C23.7188 43.5876 22.7251 50.6313 22.7251 50.6313H22.7313C22.7313 50.6313 29.7751 49.6438 31.4626 47.9563C32.0626 47.3563 32.4751 46.5938 32.6376 45.7626C32.8001 44.9313 32.7188 44.0751 32.3938 43.2876H32.3876Z" fill="white"/>
<path d="M46.5125 46.8564L50.4 55.8689" stroke="#3F4752" stroke-linecap="round" stroke-linejoin="round"/>
<path d="M35.525 13.4064C29.6063 20.0502 25.5438 29.5939 25.1625 30.4939L14.6562 25.9939L26.4125 14.2502C27.775 12.8877 29.75 12.2752 31.6625 12.6564L35.525 13.4127V13.4064Z" stroke="#3F4752" stroke-linecap="round" stroke-linejoin="round"/>
<path d="M60.075 37.9502C53.4312 43.8689 43.8812 47.9314 42.9812 48.3064L47.4812 58.8064L59.2312 47.0564C60.5937 45.6939 61.2062 43.7189 60.825 41.8064L60.0687 37.9502H60.075V37.9502Z" stroke="#3F4752" stroke-linecap="round" stroke-linejoin="round"/>
<path d="M70.5686 2.90625C67.7936 2.00625 55.5624 -0.543747 39.9061 15.1125C33.6561 21.3375 29.1624 32.1938 29.1624 32.1938C29.1624 32.1938 32.1936 36.25 34.3186 38.4875C36.4436 40.725 41.2749 44.3062 41.2749 44.3062C41.2749 44.3062 52.1311 39.8125 58.3561 33.5625C74.0061 17.9188 71.4561 5.68125 70.5686 2.90625ZM52.3811 26.9063C50.7811 26.9063 49.3374 26.2375 48.2811 25.1875C47.2249 24.1313 46.5624 22.6875 46.5624 21.0875C46.5749 17.8938 49.1874 15.2813 52.3686 15.2813C53.9686 15.2813 55.4249 15.9375 56.4811 16.9938C57.5374 18.05 58.1936 19.5063 58.1936 21.1063C58.1936 24.2875 55.5811 26.9 52.3874 26.9125L52.3811 26.9063Z" stroke="#3F4752" stroke-linecap="round" stroke-linejoin="round"/>
<path d="M34.3124 43.8689C33.8686 42.8064 33.2374 41.8627 32.4249 41.0502C31.6124 40.2377 30.6686 39.6002 29.6061 39.1564C28.0061 38.4877 26.2561 38.3252 24.5686 38.6564C22.8811 38.9877 21.3311 39.8252 20.1124 41.0502C16.6874 44.4752 14.6624 58.8002 14.6624 58.8002H14.6811V58.8189C14.6811 58.8189 29.0061 56.7939 32.4311 53.3689C33.6561 52.1439 34.4874 50.6002 34.8249 48.9064C35.1624 47.2127 34.9936 45.4689 34.3249 43.8689H34.3124V43.8689Z" stroke="#3F4752" stroke-linecap="round" stroke-linejoin="round"/>
<path d="M32.3937 43.2876C32.1749 42.7626 31.8624 42.3001 31.4687 41.9001C31.0687 41.5001 30.6062 41.1876 30.0812 40.9688C29.2937 40.6376 28.4374 40.5563 27.6062 40.7251C26.7749 40.8876 26.0124 41.3001 25.4125 41.9001C23.725 43.5876 22.7312 50.6313 22.7312 50.6313H22.7375C22.7375 50.6313 29.7812 49.6438 31.4687 47.9563C32.0687 47.3563 32.4812 46.5938 32.6437 45.7626C32.8062 44.9313 32.7249 44.0751 32.3999 43.2876H32.3937V43.2876Z" stroke="#3F4752" stroke-linecap="round" stroke-linejoin="round"/>
<path d="M52.3811 28.5189C56.4811 28.5189 59.8061 25.1939 59.8061 21.0939C59.8061 16.9939 56.4811 13.6689 52.3811 13.6689C48.2811 13.6689 44.9561 16.9939 44.9561 21.0939C44.9561 25.1939 48.2811 28.5189 52.3811 28.5189Z" stroke="#3F4752" stroke-linecap="round" stroke-linejoin="round"/>
<path d="M17.0874 23.5688L26.1062 27.4313" stroke="#3F4752" stroke-linecap="round" stroke-linejoin="round"/>
<path d="M46.5186 46.8564L50.4061 55.8689" stroke="#3F4752" stroke-linecap="round" stroke-linejoin="round"/>
<path d="M64.5188 2.3623C64.5188 2.3623 65.875 4.6623 67.3875 5.9748C69.8438 8.09355 71.0625 8.9123 71.0625 8.9123" stroke="#3F4752" stroke-linecap="round" stroke-linejoin="round"/>
<path d="M31.7063 27.0562C31.7063 27.0562 35.2 31.4624 37.0063 33.2499C41.3938 37.5999 44.5751 39.4437 44.5751 39.4437" stroke="#3F4752" stroke-linecap="round" stroke-linejoin="round"/>
<path d="M32.7124 25.5C32.7124 25.5 36.2999 30 38.1499 31.8313C42.6437 36.2813 45.8812 38.1938 45.8812 38.1938" stroke="#3F4752" stroke-linecap="round" stroke-linejoin="round"/>
</svg>
